<svg width="30" height="29" viewBox="0 0 30 29" fill="none" xmlns="http://www.w3.org/2000/svg">
    <path fill-rule="evenodd" clip-rule="evenodd" d="M8.93701 0.0206299C4.51855 0.0206299 0.937012 3.60242 0.937012 8.02063V20.5526C0.937012 24.9708 4.51855 28.5526 8.93701 28.5526H21.4692C25.8872 28.5526 29.4688 24.9708 29.4688 20.5526V8.02063C29.4688 3.60242 25.8872 0.0206299 21.4692 0.0206299H8.93701ZM16.6411 22.6417H13.3965V15.3375H10.7607V12.3173H13.3989V10.0179C13.3647 9.70276 13.3716 9.38562 13.418 9.0741C13.4507 8.85339 13.5034 8.63538 13.5757 8.42322C13.6675 8.15393 13.7896 7.89709 13.939 7.65759C14.0737 7.44153 14.231 7.23938 14.4082 7.05481C14.7827 6.66589 15.2373 6.36462 15.7402 6.17224C16.2432 5.97986 16.7817 5.90125 17.3184 5.94202C17.854 5.95056 18.3892 5.98621 18.9214 6.04895C19.1636 6.07751 19.4048 6.11145 19.645 6.151V8.72107H18.332C18.2686 8.71252 18.2051 8.70837 18.1416 8.70813C18.1099 8.70789 18.0781 8.70886 18.0469 8.71082C17.918 8.71863 17.791 8.74304 17.668 8.78357C17.4546 8.85437 17.2593 8.97229 17.0967 9.12927C16.9346 9.28601 16.8091 9.47766 16.7305 9.68958C16.6826 9.81799 16.6523 9.95154 16.6406 10.0873C16.6333 10.1759 16.6333 10.2653 16.6411 10.3544V12.3173H19.5195L19.0591 15.3385H16.6411V22.6417Z" fill="#6D28D9"></path>
</svg>
