<svg width="31" height="31" viewBox="0 0 31 31" fill="none" xmlns="http://www.w3.org/2000/svg">
<path d="M0.905273 15.3177C0.906118 18.9117 2.18098 22.3875 4.50072 25.1205C6.82045 27.8534 10.0329 29.6643 13.5608 30.2275V19.6794H9.75527V15.3177H13.5653V11.9973C13.4811 11.2202 13.5681 10.4339 13.82 9.69444C14.0719 8.95494 14.4825 8.28031 15.0227 7.71848C15.5629 7.15664 16.2195 6.72138 16.9457 6.4436C17.6719 6.16582 18.45 6.05235 19.2248 6.11123C20.3498 6.12934 21.4748 6.23046 22.5848 6.41308V10.1243H20.6888C20.3665 10.0819 20.0389 10.1128 19.7302 10.2149C19.4214 10.3169 19.1394 10.4875 18.9049 10.7139C18.6705 10.9404 18.4896 11.217 18.3757 11.5232C18.2618 11.8295 18.2177 12.1576 18.2468 12.4833V15.3177H22.4033L21.7388 19.6809H18.2468V30.2275C21.0782 29.7773 23.7221 28.5202 25.8655 26.605C28.0089 24.6898 29.562 22.1968 30.3409 19.421C31.1198 16.6453 31.0919 13.7031 30.2606 10.9428C29.4292 8.18256 27.8291 5.71978 25.6498 3.84606C23.4705 1.97234 20.8033 0.766172 17.9638 0.370348C15.1244 -0.0254756 12.2317 0.405625 9.62815 1.61261C7.02465 2.8196 4.8194 4.75192 3.27348 7.1808C1.72756 9.60968 0.905728 12.4334 0.905273 15.3177Z" fill="#6D28D9"/>
</svg>
