<svg width="29" height="29" viewBox="0 0 29 29" fill="none" xmlns="http://www.w3.org/2000/svg">
    <path d="M14.6069 16.9521C13.1351 16.9521 11.9413 15.7584 11.9413 14.2865C11.9413 12.8146 13.1351 11.6209 14.6069 11.6209C16.0788 11.6209 17.2726 12.8146 17.2726 14.2865C17.2726 15.7584 16.0788 16.9521 14.6069 16.9521Z" fill="#6D28D9"></path>
    <path fill-rule="evenodd" clip-rule="evenodd" d="M17.8382 7.774C16.9976 7.7365 16.7444 7.72712 14.6069 7.72712C12.4694 7.72712 12.2163 7.7365 11.3757 7.774C10.5976 7.80837 10.1726 7.93962 9.89131 8.049C9.51943 8.19275 9.25381 8.36462 8.97256 8.64587C8.69443 8.924 8.51943 9.19275 8.37568 9.56462C8.26631 9.84587 8.13506 10.2677 8.10068 11.049C8.06318 11.8896 8.05381 12.1427 8.05381 14.2802C8.05381 16.4146 8.06318 16.6677 8.10068 17.5115C8.13506 18.2896 8.26631 18.7146 8.37568 18.9959C8.51943 19.3678 8.69131 19.6334 8.97256 19.9146C9.25068 20.1927 9.51943 20.3678 9.89131 20.5115C10.1726 20.6209 10.5944 20.7521 11.3757 20.7865C12.2163 20.824 12.4694 20.8334 14.6069 20.8334C16.7413 20.8334 16.9944 20.824 17.8382 20.7865C18.6163 20.7521 19.0413 20.6209 19.3226 20.5115C19.6944 20.3678 19.9601 20.1959 20.2413 19.9146C20.5194 19.6365 20.6944 19.3678 20.8382 18.9959C20.9476 18.7146 21.0788 18.2928 21.1132 17.5115C21.1507 16.6709 21.1601 16.4177 21.1601 14.2802C21.1601 12.1459 21.1507 11.8927 21.1132 11.049C21.0788 10.2709 20.9476 9.84587 20.8382 9.56462C20.6944 9.19275 20.5226 8.92712 20.2413 8.64587C19.9632 8.36775 19.6944 8.19275 19.3226 8.049C19.0413 7.93962 18.6194 7.80837 17.8382 7.774ZM14.6069 10.1771C12.3382 10.1771 10.4976 12.0177 10.4976 14.2865C10.4976 16.5552 12.3382 18.3959 14.6069 18.3959C16.8757 18.3959 18.7163 16.5552 18.7163 14.2865C18.7163 12.0177 16.8757 10.1771 14.6069 10.1771ZM18.8788 10.974C19.4069 10.974 19.8382 10.5458 19.8382 10.0146C19.8382 9.48647 19.4069 9.05522 18.8788 9.05522C18.3507 9.05522 17.9194 9.48335 17.9194 10.0146C17.9194 10.5427 18.3476 10.974 18.8788 10.974Z" fill="#6D28D9"></path>
    <path fill-rule="evenodd" clip-rule="evenodd" d="M8.34082 0.0206299C3.92254 0.0206299 0.34082 3.60235 0.34082 8.02063V20.5526C0.34082 24.9709 3.92254 28.5526 8.34082 28.5526H20.8728C25.2911 28.5526 28.8728 24.9709 28.8728 20.5526V8.02063C28.8728 3.60235 25.2911 0.0206299 20.8728 0.0206299H8.34082ZM11.3101 6.33337C12.1632 6.29587 12.4351 6.2865 14.6069 6.2865C16.7788 6.2865 17.0507 6.29587 17.9069 6.3365C18.7569 6.374 19.3382 6.5115 19.8476 6.70837C20.3726 6.9115 20.8194 7.1865 21.2632 7.63025C21.7101 8.074 21.9819 8.52087 22.1788 9.05212C22.3757 9.55837 22.5132 10.1427 22.5507 10.9927C22.5882 11.8459 22.5976 12.1178 22.5976 14.2896C22.5976 16.4615 22.5882 16.7334 22.5507 17.5865C22.5132 18.4365 22.3757 19.0177 22.1788 19.5271C21.9757 20.0521 21.7007 20.499 21.2569 20.9427C20.8132 21.3865 20.3663 21.6615 19.8413 21.8646C19.3351 22.0615 18.7507 22.199 17.9007 22.2365C17.0476 22.274 16.7757 22.2834 14.6038 22.2834C12.4319 22.2834 12.1601 22.274 11.3069 22.2365C10.4569 22.199 9.87568 22.0615 9.36631 21.8646C8.84131 21.6615 8.39443 21.3865 7.95068 20.9427C7.50381 20.499 7.23193 20.0521 7.02568 19.524C6.82881 19.0177 6.69131 18.4334 6.65381 17.5834C6.61631 16.7302 6.60693 16.4584 6.60693 14.2865C6.60693 12.1146 6.61631 11.8427 6.65381 10.9865C6.69131 10.1365 6.82881 9.55525 7.02568 9.04587C7.23193 8.52087 7.50381 8.074 7.95068 7.63025C8.39443 7.18337 8.84131 6.9115 9.36943 6.70525C9.87568 6.50837 10.4601 6.37087 11.3101 6.33337Z" fill="#6D28D9"></path>
</svg>