<svg width="118" height="47" viewBox="0 0 118 47" fill="none" xmlns="http://www.w3.org/2000/svg">
<path d="M42.2935 39.7668H37.3112L31.2661 32.2968V39.7668H26.9814V16.4766H31.2661V30.5527L36.9791 23.3129H42.0942L35.7153 31.4409L42.2935 39.7668Z" fill="#52525B"/>
<path d="M54.0557 23.3132H58.0767V39.7671H54.0557V38.3565C52.6774 39.7045 50.9665 40.2258 48.6417 40.2258C46.4269 40.2258 44.5285 39.3868 42.9463 37.7087C41.3641 36.0307 40.5724 33.9738 40.5713 31.5382C40.5713 29.1029 41.363 27.0462 42.9463 25.3682C44.5296 23.6901 46.4281 22.8511 48.6417 22.8511C50.9665 22.8511 52.7367 23.5282 54.0557 24.7785V23.3132ZM46.1499 34.8802C47.0137 35.7453 48.1099 36.1779 49.4385 36.1779C50.767 36.1779 51.8681 35.7453 52.7418 34.8802C53.6151 34.015 54.0517 32.9016 54.0517 31.5399C54.0517 30.1781 53.6151 29.0649 52.7418 28.2001C51.8685 27.3349 50.7674 26.9023 49.4385 26.9023C48.1095 26.9023 47.0134 27.3349 46.1499 28.2001C45.2865 29.0653 44.8548 30.1785 44.8548 31.5399C44.8548 32.9012 45.2865 34.0146 46.1499 34.8802Z" fill="#52525B"/>
<path d="M113.263 23.3132H117.284V39.7671H113.263V38.3565C111.885 39.7045 110.174 40.2258 107.849 40.2258C105.634 40.2258 103.736 39.3868 102.153 37.7087C100.571 36.0307 99.7791 33.9738 99.7783 31.5382C99.7783 29.1029 100.57 27.0462 102.153 25.3682C103.737 23.6901 105.635 22.8511 107.849 22.8511C110.174 22.8511 111.944 23.5282 113.263 24.7785V23.3132ZM105.358 34.8802C106.221 35.7453 107.317 36.1779 108.646 36.1779C109.975 36.1779 111.076 35.7453 111.949 34.8802C112.823 34.015 113.259 32.9016 113.259 31.5399C113.259 30.1781 112.823 29.0649 111.949 28.2001C111.076 27.3349 109.975 26.9023 108.646 26.9023C107.317 26.9023 106.221 27.3349 105.358 28.2001C104.494 29.0653 104.062 30.1785 104.062 31.5399C104.062 32.9012 104.494 34.0146 105.358 34.8802Z" fill="#52525B"/>
<path d="M64.7192 24.9336C66.0559 22.6479 69.7682 22.9842 69.7682 22.9842V27.3373C64.6298 26.8684 64.7192 31.5167 64.7192 31.5167V39.767H60.4346V23.3131H64.7192V24.9336Z" fill="#52525B"/>
<path d="M79.969 27.3939H76.218V34.2387C76.218 34.8094 76.3619 35.2262 76.6497 35.4891C76.9375 35.752 77.3582 35.9001 77.9118 35.9332C78.5981 35.9654 79.2856 35.9599 79.9713 35.9168V39.7672C77.0256 40.0963 74.9496 39.8221 73.7433 38.9445C72.5359 38.0671 71.9111 36.4985 71.9111 34.2387V27.3939V23.3133V19.7021H76.218V23.3133H79.9713L79.969 27.3939Z" fill="#52525B"/>
<path d="M95.7177 37.7102C94.0122 39.3883 91.9307 40.2273 89.4733 40.2273C87.0159 40.2273 84.94 39.3883 83.2454 37.7102C81.5512 36.0318 80.7041 33.9749 80.7041 31.5396C80.7041 29.1044 81.5512 27.0477 83.2454 25.3696C84.9392 23.6916 87.0152 22.8525 89.4733 22.8525C91.9314 22.8525 94.0129 23.6916 95.7177 25.3696C97.4229 27.0496 98.2755 29.1062 98.2755 31.5396C98.2755 33.973 97.4229 36.0299 95.7177 37.7102ZM86.2674 34.7976C87.1198 35.6537 88.1884 36.0816 89.4733 36.0812C90.7582 36.0808 91.8321 35.653 92.6952 34.7976C93.5586 33.9422 94.1076 32.856 94.1076 31.5396C94.1076 30.2232 93.5586 29.1376 92.6952 28.2817C91.8318 27.4257 90.7588 26.9986 89.4733 26.9986C88.1879 26.9986 87.12 27.4263 86.2674 28.2817C85.4148 29.1371 84.9067 30.2232 84.9067 31.5396C84.9067 32.856 85.4153 33.9422 86.2674 34.7976Z" fill="#52525B"/>
<path d="M115.917 19.8584C115.543 19.8584 115.177 19.7484 114.866 19.5424C114.554 19.3363 114.312 19.0435 114.168 18.7009C114.025 18.3583 113.988 17.9813 114.061 17.6176C114.134 17.2539 114.314 16.9198 114.579 16.6576C114.843 16.3953 115.181 16.2168 115.548 16.1444C115.915 16.0721 116.295 16.1092 116.641 16.2511C116.987 16.393 117.283 16.6334 117.491 16.9417C117.699 17.25 117.81 17.6125 117.81 17.9834C117.809 18.4805 117.61 18.9572 117.255 19.3087C116.9 19.6602 116.419 19.8579 115.917 19.8584ZM115.917 16.4769C115.616 16.4769 115.322 16.5653 115.072 16.7309C114.822 16.8965 114.627 17.1319 114.511 17.4073C114.396 17.6828 114.366 17.9858 114.425 18.2782C114.484 18.5705 114.629 18.8391 114.842 19.0498C115.054 19.2606 115.325 19.4041 115.621 19.4621C115.916 19.5202 116.222 19.4903 116.5 19.3762C116.778 19.262 117.015 19.0687 117.182 18.8208C117.349 18.5729 117.438 18.2815 117.438 17.9834C117.438 17.5839 117.277 17.201 116.992 16.9186C116.707 16.6361 116.32 16.4773 115.917 16.4769Z" fill="#52525B"/>
<path d="M116.313 18.8475L115.971 18.2686H115.72V18.8475H115.388V17.1802H116.061C116.209 17.18 116.351 17.2382 116.456 17.3419C116.561 17.4455 116.62 17.5863 116.621 17.7331C116.621 17.8354 116.59 17.9353 116.532 18.0198C116.474 18.1069 116.392 18.1758 116.296 18.2184L116.669 18.8475H116.313ZM115.722 17.4877V17.9808H116.064C116.094 17.9809 116.125 17.9745 116.152 17.9619C116.18 17.9494 116.205 17.931 116.225 17.9081C116.269 17.8606 116.294 17.7979 116.292 17.7331C116.294 17.6687 116.27 17.6062 116.225 17.5593C116.205 17.5367 116.18 17.5185 116.152 17.5062C116.124 17.4938 116.094 17.4875 116.064 17.4877H115.722Z" fill="#52525B"/>
<path d="M63.5132 42.7778V43.464H62.5214V46.4182H61.7969V43.464H60.8096V42.7778H63.5132Z" fill="#52525B"/>
<path d="M65.1642 45.7321H66.7154V46.4182H64.4424V42.7778H66.6889V43.464H65.1669V44.2396H66.5584V44.9158H65.1669L65.1642 45.7321Z" fill="#52525B"/>
<path d="M69.4683 46.4903C69.2148 46.4983 68.9623 46.4543 68.7267 46.3609C68.4912 46.2676 68.2777 46.127 68.0996 45.9479C67.7527 45.5833 67.5596 45.1012 67.5596 44.6001C67.5596 44.099 67.7527 43.6169 68.0996 43.2522C68.2778 43.0734 68.4914 42.933 68.7269 42.8397C68.9624 42.7463 69.2148 42.7021 69.4683 42.7098C69.7902 42.7071 70.1074 42.7868 70.389 42.9413C70.6621 43.0868 70.8899 43.3034 71.0478 43.5677L70.4237 43.9293C70.3341 43.7674 70.1991 43.6345 70.035 43.5469C69.8053 43.4296 69.5446 43.3854 69.2886 43.4201C69.0326 43.4549 68.7936 43.5671 68.6042 43.7413C68.3931 43.9794 68.2766 44.2854 68.2766 44.6024C68.2766 44.9193 68.3931 45.2253 68.6042 45.4634C68.7941 45.6376 69.0336 45.7498 69.29 45.7845C69.5465 45.8193 69.8075 45.775 70.0377 45.6578C70.2009 45.5727 70.3351 45.4419 70.4237 45.2817L71.0478 45.6433C70.8907 45.9073 70.6639 46.1239 70.3918 46.2698C70.1084 46.4211 69.7902 46.4971 69.4683 46.4903Z" fill="#52525B"/>
<path d="M74.105 42.7778H74.8231V46.4182H74.105V44.9104H72.7363V46.4182H72.0127V42.7778H72.7363V44.2242H74.105V42.7778Z" fill="#52525B"/>
<path d="M78.1547 42.7778H78.8792V46.4182H78.3317L76.7567 44.1926V46.4182H76.0322V42.7778H76.5797L78.1547 44.9989V42.7778Z" fill="#52525B"/>
<path d="M83.1786 45.943C82.8642 46.259 82.4487 46.457 82.0033 46.5033C81.5578 46.5496 81.1099 46.4412 80.7362 46.1966C80.3624 45.9521 80.0859 45.5866 79.954 45.1625C79.822 44.7385 79.8428 44.2822 80.0127 43.8716C80.1826 43.461 80.4911 43.1216 80.8855 42.9113C81.2799 42.7011 81.7358 42.633 82.1753 42.7187C82.6148 42.8045 83.0106 43.0387 83.2951 43.3814C83.5796 43.7242 83.7352 44.1541 83.7352 44.5979C83.7402 44.8479 83.6934 45.0962 83.5977 45.3276C83.5019 45.5589 83.3593 45.7684 83.1786 45.943ZM80.9796 45.4539C81.2074 45.6693 81.5101 45.7894 81.825 45.7894C82.1398 45.7894 82.4426 45.6693 82.6704 45.4539C82.8902 45.221 83.0125 44.914 83.0125 44.5951C83.0125 44.2763 82.8902 43.9693 82.6704 43.7364C82.4434 43.5195 82.1403 43.3984 81.825 43.3984C81.5096 43.3984 81.2066 43.5195 80.9796 43.7364C80.7591 43.969 80.6364 44.2761 80.6364 44.5951C80.6364 44.9142 80.7591 45.2213 80.9796 45.4539Z" fill="#52525B"/>
<path d="M85.498 45.7321H86.9005V46.4182H84.7744V42.7778H85.498V45.7321Z" fill="#52525B"/>
<path d="M90.6943 45.943C90.3798 46.259 89.9644 46.457 89.5189 46.5033C89.0734 46.5496 88.6256 46.4412 88.2518 46.1966C87.878 45.9521 87.6016 45.5866 87.4696 45.1625C87.3376 44.7385 87.3584 44.2822 87.5283 43.8716C87.6982 43.461 88.0067 43.1216 88.4011 42.9113C88.7956 42.7011 89.2515 42.633 89.6909 42.7187C90.1304 42.8045 90.5262 43.0387 90.8107 43.3814C91.0952 43.7242 91.2508 44.1541 91.2509 44.5979C91.2558 44.8478 91.2089 45.0962 91.1132 45.3275C91.0175 45.5589 90.8749 45.7684 90.6943 45.943ZM88.4952 45.4539C88.7228 45.6692 89.0254 45.7894 89.3401 45.7894C89.6549 45.7894 89.9575 45.6692 90.1851 45.4539C90.4055 45.2213 90.5282 44.9142 90.5282 44.5951C90.5282 44.2761 90.4055 43.969 90.1851 43.7364C89.9583 43.5194 89.6554 43.3981 89.3401 43.3981C89.0249 43.3981 88.722 43.5194 88.4952 43.7364C88.2747 43.969 88.1521 44.2761 88.1521 44.5951C88.1521 44.9142 88.2747 45.2213 88.4952 45.4539Z" fill="#52525B"/>
<path d="M95.8895 44.4634V44.7464C95.8895 45.2665 95.7213 45.6883 95.3849 46.012C95.0485 46.3356 94.6148 46.4965 94.0837 46.4947C93.8236 46.5029 93.5646 46.4586 93.3224 46.3644C93.0801 46.2702 92.8598 46.1282 92.6748 45.9469C92.4935 45.7737 92.3501 45.5654 92.2537 45.3349C92.1573 45.1044 92.1099 44.8566 92.1146 44.6071C92.1117 44.3562 92.1597 44.1071 92.2557 43.8748C92.3517 43.6425 92.4937 43.4316 92.6734 43.2547C92.853 43.0777 93.0667 42.9382 93.3017 42.8444C93.5368 42.7506 93.7884 42.7045 94.0417 42.7088C94.3698 42.7049 94.6935 42.7846 94.9816 42.9402C95.2534 43.0832 95.4815 43.2958 95.6422 43.5558L95.0226 43.9093C94.9276 43.7542 94.7903 43.6289 94.6266 43.5477C94.4449 43.4523 94.2419 43.4038 94.0363 43.4066C93.8764 43.4015 93.7173 43.4292 93.5688 43.4878C93.4202 43.5465 93.2855 43.6348 93.173 43.7475C93.0609 43.8608 92.973 43.9955 92.9149 44.1434C92.8567 44.2913 92.8293 44.4494 92.8345 44.608C92.8293 44.7657 92.8572 44.9227 92.9164 45.0691C92.9757 45.2156 93.0649 45.3482 93.1785 45.4587C93.3 45.5726 93.4434 45.6611 93.6002 45.7187C93.757 45.7763 93.9239 45.802 94.091 45.7941C94.3359 45.8046 94.5782 45.7416 94.7863 45.6133C94.9676 45.4932 95.1004 45.3136 95.1613 45.1061H94.049V44.4734L95.8895 44.4634Z" fill="#52525B"/>
<path d="M96.9346 42.7778H97.6591V46.4182H96.9346V42.7778Z" fill="#52525B"/>
<path d="M99.586 45.7321H101.137V46.4182H98.8643V42.7778H101.112V43.464H99.5888V44.2396H100.979V44.9158H99.5879L99.586 45.7321Z" fill="#52525B"/>
<path d="M103.429 46.4912C103.105 46.5023 102.786 46.4183 102.51 46.2499C102.266 46.0942 102.082 45.8627 101.985 45.5918L102.605 45.2302C102.748 45.602 103.03 45.7876 103.45 45.787C103.606 45.7997 103.763 45.7613 103.895 45.6777C103.942 45.6439 103.979 45.5992 104.004 45.5476C104.029 45.4959 104.04 45.439 104.037 45.3819C104.034 45.3247 104.016 45.2693 103.986 45.2206C103.956 45.1718 103.914 45.1313 103.864 45.1027C103.668 45.0006 103.46 44.9228 103.245 44.8713C103.103 44.8311 102.964 44.7825 102.828 44.7258C102.707 44.6739 102.593 44.6087 102.487 44.5314C102.375 44.4514 102.286 44.3448 102.226 44.2213C102.164 44.0843 102.132 43.9351 102.135 43.7847C102.129 43.6353 102.158 43.4866 102.219 43.35C102.281 43.2135 102.373 43.0928 102.489 42.9973C102.728 42.8002 103.031 42.6958 103.342 42.7035C103.619 42.6977 103.892 42.7725 104.126 42.9187C104.355 43.0663 104.538 43.2746 104.654 43.5198L104.045 43.8679C103.899 43.5563 103.665 43.4002 103.342 43.3996C103.216 43.3926 103.091 43.4283 102.987 43.5008C102.947 43.5317 102.914 43.5715 102.892 43.6172C102.869 43.6629 102.858 43.7132 102.86 43.7639C102.858 43.8185 102.871 43.8725 102.896 43.9211C102.921 43.9697 102.958 44.0114 103.004 44.0423C103.175 44.1467 103.362 44.2247 103.557 44.2738C103.669 44.3081 103.755 44.3352 103.811 44.3542C103.868 44.3732 103.948 44.403 104.048 44.4446C104.128 44.4745 104.205 44.512 104.278 44.5567C104.342 44.5994 104.403 44.6462 104.461 44.6968C104.524 44.7478 104.578 44.809 104.621 44.8776C104.66 44.949 104.691 45.0249 104.712 45.1036C104.738 45.1978 104.752 45.2951 104.751 45.3929C104.757 45.5457 104.727 45.6978 104.663 45.8369C104.598 45.9761 104.502 46.0983 104.382 46.1938C104.142 46.3921 103.824 46.4912 103.429 46.4912Z" fill="#52525B"/>
<path d="M109.448 45.7321H110.85V46.4182H108.724V42.7778H109.448V45.7321Z" fill="#52525B"/>
<path d="M113.844 42.7778V43.464H112.853V46.4182H112.129V43.464H111.142V42.7778H113.844Z" fill="#52525B"/>
<path d="M116.23 42.7783C116.466 42.7729 116.701 42.8168 116.918 42.9074C117.136 42.9979 117.332 43.1328 117.493 43.3035C117.819 43.6575 118 44.1194 118 44.5985C118 45.0776 117.819 45.5394 117.493 45.8934C117.332 46.0641 117.136 46.1991 116.918 46.2896C116.701 46.3801 116.466 46.4241 116.23 46.4187H114.771V42.7783H116.23ZM116.23 45.7325C116.375 45.7378 116.519 45.7125 116.653 45.6582C116.787 45.604 116.908 45.5221 117.007 45.4179C117.2 45.1878 117.306 44.8979 117.306 44.5985C117.306 44.2991 117.2 44.0091 117.007 43.779C116.907 43.675 116.787 43.5932 116.653 43.539C116.519 43.4847 116.375 43.4593 116.23 43.4644H115.5V45.7325H116.23Z" fill="#52525B"/>
<path d="M21.2448 39.7668H11.1338V29.7515C13.8151 29.7515 16.3866 30.8066 18.2828 32.6848C20.1789 34.563 21.2444 37.1104 21.2448 39.7668Z" fill="#27B373"/>
<path d="M11.1338 29.7515V19.7334H21.2448C21.2451 21.049 20.9837 22.3517 20.4757 23.5672C19.9676 24.7827 19.2229 25.8871 18.2839 26.8174C17.345 27.7477 16.2303 28.4856 15.0035 28.9891C13.7766 29.4925 12.4617 29.7516 11.1338 29.7515Z" fill="#F3BC2F"/>
<path d="M11.1353 39.767C5.43253 39.767 0.80957 35.2812 0.80957 29.7516C0.80957 24.2221 5.43253 19.7363 11.1353 19.7363" fill="#0078D4"/>
<path d="M0.80957 10.0596C6.51237 10.0596 11.1353 14.3918 11.1353 19.7363C11.1353 25.0809 6.51237 29.4131 0.80957 29.4131V10.0596Z" fill="#EE3E36"/>
<path d="M65.4196 5.17957C65.4196 5.5329 65.3362 5.86624 65.1696 6.17957C65.0029 6.4929 64.7362 6.74957 64.3696 6.94957C64.0029 7.1429 63.5329 7.23957 62.9596 7.23957H61.6996V10.0596H60.5596V3.10957H62.9596C63.4929 3.10957 63.9429 3.2029 64.3096 3.38957C64.6829 3.56957 64.9596 3.81624 65.1396 4.12957C65.3262 4.4429 65.4196 4.7929 65.4196 5.17957ZM62.9596 6.30957C63.3929 6.30957 63.7162 6.2129 63.9296 6.01957C64.1429 5.81957 64.2496 5.53957 64.2496 5.17957C64.2496 4.41957 63.8196 4.03957 62.9596 4.03957H61.6996V6.30957H62.9596ZM68.7968 10.1496C68.2768 10.1496 67.8068 10.0329 67.3868 9.79957C66.9668 9.55957 66.6368 9.22624 66.3968 8.79957C66.1568 8.36624 66.0368 7.86624 66.0368 7.29957C66.0368 6.73957 66.1602 6.2429 66.4068 5.80957C66.6535 5.37624 66.9902 5.0429 67.4168 4.80957C67.8435 4.57624 68.3202 4.45957 68.8468 4.45957C69.3735 4.45957 69.8502 4.57624 70.2768 4.80957C70.7035 5.0429 71.0402 5.37624 71.2868 5.80957C71.5335 6.2429 71.6568 6.73957 71.6568 7.29957C71.6568 7.85957 71.5302 8.35624 71.2768 8.78957C71.0235 9.2229 70.6768 9.55957 70.2368 9.79957C69.8035 10.0329 69.3235 10.1496 68.7968 10.1496ZM68.7968 9.15957C69.0902 9.15957 69.3635 9.08957 69.6168 8.94957C69.8768 8.80957 70.0868 8.59957 70.2468 8.31957C70.4068 8.03957 70.4868 7.69957 70.4868 7.29957C70.4868 6.89957 70.4102 6.5629 70.2568 6.28957C70.1035 6.00957 69.9002 5.79957 69.6468 5.65957C69.3935 5.51957 69.1202 5.44957 68.8268 5.44957C68.5335 5.44957 68.2602 5.51957 68.0068 5.65957C67.7602 5.79957 67.5635 6.00957 67.4168 6.28957C67.2702 6.5629 67.1968 6.89957 67.1968 7.29957C67.1968 7.8929 67.3468 8.3529 67.6468 8.67957C67.9535 8.99957 68.3368 9.15957 68.7968 9.15957ZM80.0838 4.54957L78.3738 10.0596H77.1738L76.0638 5.98957L74.9538 10.0596H73.7538L72.0338 4.54957H73.1938L74.3438 8.97957L75.5138 4.54957H76.7038L77.8238 8.95957L78.9638 4.54957H80.0838ZM85.8857 7.16957C85.8857 7.37624 85.8724 7.5629 85.8457 7.72957H81.6357C81.6691 8.16957 81.8324 8.5229 82.1257 8.78957C82.4191 9.05624 82.7791 9.18957 83.2057 9.18957C83.8191 9.18957 84.2524 8.9329 84.5057 8.41957H85.7357C85.5691 8.92624 85.2657 9.3429 84.8257 9.66957C84.3924 9.98957 83.8524 10.1496 83.2057 10.1496C82.6791 10.1496 82.2057 10.0329 81.7857 9.79957C81.3724 9.55957 81.0457 9.22624 80.8057 8.79957C80.5724 8.36624 80.4557 7.86624 80.4557 7.29957C80.4557 6.7329 80.5691 6.23624 80.7957 5.80957C81.0291 5.37624 81.3524 5.0429 81.7657 4.80957C82.1857 4.57624 82.6657 4.45957 83.2057 4.45957C83.7257 4.45957 84.1891 4.5729 84.5957 4.79957C85.0024 5.02624 85.3191 5.34624 85.5457 5.75957C85.7724 6.16624 85.8857 6.63624 85.8857 7.16957ZM84.6957 6.80957C84.6891 6.38957 84.5391 6.0529 84.2457 5.79957C83.9524 5.54624 83.5891 5.41957 83.1557 5.41957C82.7624 5.41957 82.4257 5.54624 82.1457 5.79957C81.8657 6.04624 81.6991 6.3829 81.6457 6.80957H84.6957ZM88.0476 5.34957C88.2143 5.06957 88.4343 4.8529 88.7076 4.69957C88.9876 4.53957 89.3176 4.45957 89.6976 4.45957V5.63957H89.4076C88.961 5.63957 88.621 5.7529 88.3876 5.97957C88.161 6.20624 88.0476 6.59957 88.0476 7.15957V10.0596H86.9076V4.54957H88.0476V5.34957ZM95.6955 7.16957C95.6955 7.37624 95.6822 7.5629 95.6555 7.72957H91.4455C91.4788 8.16957 91.6422 8.5229 91.9355 8.78957C92.2288 9.05624 92.5888 9.18957 93.0155 9.18957C93.6288 9.18957 94.0622 8.9329 94.3155 8.41957H95.5455C95.3788 8.92624 95.0755 9.3429 94.6355 9.66957C94.2022 9.98957 93.6622 10.1496 93.0155 10.1496C92.4888 10.1496 92.0155 10.0329 91.5955 9.79957C91.1822 9.55957 90.8555 9.22624 90.6155 8.79957C90.3822 8.36624 90.2655 7.86624 90.2655 7.29957C90.2655 6.7329 90.3788 6.23624 90.6055 5.80957C90.8388 5.37624 91.1622 5.0429 91.5755 4.80957C91.9955 4.57624 92.4755 4.45957 93.0155 4.45957C93.5355 4.45957 93.9988 4.5729 94.4055 4.79957C94.8122 5.02624 95.1288 5.34624 95.3555 5.75957C95.5822 6.16624 95.6955 6.63624 95.6955 7.16957ZM94.5055 6.80957C94.4988 6.38957 94.3488 6.0529 94.0555 5.79957C93.7622 5.54624 93.3988 5.41957 92.9655 5.41957C92.5722 5.41957 92.2355 5.54624 91.9555 5.79957C91.6755 6.04624 91.5088 6.3829 91.4555 6.80957H94.5055ZM96.3374 7.27957C96.3374 6.72624 96.4507 6.23624 96.6774 5.80957C96.9107 5.3829 97.2241 5.0529 97.6174 4.81957C98.0174 4.57957 98.4607 4.45957 98.9474 4.45957C99.3074 4.45957 99.6607 4.53957 100.007 4.69957C100.361 4.8529 100.641 5.05957 100.847 5.31957V2.65957H101.997V10.0596H100.847V9.22957C100.661 9.49624 100.401 9.71624 100.067 9.88957C99.7407 10.0629 99.3641 10.1496 98.9374 10.1496C98.4574 10.1496 98.0174 10.0296 97.6174 9.78957C97.2241 9.5429 96.9107 9.2029 96.6774 8.76957C96.4507 8.32957 96.3374 7.8329 96.3374 7.27957ZM100.847 7.29957C100.847 6.91957 100.767 6.58957 100.607 6.30957C100.454 6.02957 100.251 5.81624 99.9974 5.66957C99.7441 5.5229 99.4707 5.44957 99.1774 5.44957C98.8841 5.44957 98.6107 5.5229 98.3574 5.66957C98.1041 5.80957 97.8974 6.01957 97.7374 6.29957C97.5841 6.5729 97.5074 6.89957 97.5074 7.27957C97.5074 7.65957 97.5841 7.9929 97.7374 8.27957C97.8974 8.56624 98.1041 8.78624 98.3574 8.93957C98.6174 9.08624 98.8907 9.15957 99.1774 9.15957C99.4707 9.15957 99.7441 9.08624 99.9974 8.93957C100.251 8.7929 100.454 8.57957 100.607 8.29957C100.767 8.0129 100.847 7.67957 100.847 7.29957ZM107.032 5.36957C107.226 5.1029 107.489 4.88624 107.822 4.71957C108.162 4.54624 108.539 4.45957 108.952 4.45957C109.439 4.45957 109.879 4.57624 110.272 4.80957C110.666 5.0429 110.976 5.37624 111.202 5.80957C111.429 6.23624 111.542 6.72624 111.542 7.27957C111.542 7.8329 111.429 8.32957 111.202 8.76957C110.976 9.2029 110.662 9.5429 110.262 9.78957C109.869 10.0296 109.432 10.1496 108.952 10.1496C108.526 10.1496 108.146 10.0662 107.812 9.89957C107.486 9.7329 107.226 9.51957 107.032 9.25957V10.0596H105.892V2.65957H107.032V5.36957ZM110.382 7.27957C110.382 6.89957 110.302 6.5729 110.142 6.29957C109.989 6.01957 109.782 5.80957 109.522 5.66957C109.269 5.5229 108.996 5.44957 108.702 5.44957C108.416 5.44957 108.142 5.5229 107.882 5.66957C107.629 5.81624 107.422 6.02957 107.262 6.30957C107.109 6.58957 107.032 6.91957 107.032 7.29957C107.032 7.67957 107.109 8.0129 107.262 8.29957C107.422 8.57957 107.629 8.7929 107.882 8.93957C108.142 9.08624 108.416 9.15957 108.702 9.15957C108.996 9.15957 109.269 9.08624 109.522 8.93957C109.782 8.78624 109.989 8.56624 110.142 8.27957C110.302 7.9929 110.382 7.65957 110.382 7.27957ZM117.53 4.54957L114.15 12.6496H112.97L114.09 9.96957L111.92 4.54957H113.19L114.74 8.74957L116.35 4.54957H117.53Z" fill="#52525B"/>
</svg>
