<svg width="30" height="29" viewBox="0 0 30 29" fill="none" xmlns="http://www.w3.org/2000/svg">
    <path fill-rule="evenodd" clip-rule="evenodd" d="M8.87305 0.0206299C4.45459 0.0206299 0.873047 3.60242 0.873047 8.02063V20.5526C0.873047 24.9708 4.45459 28.5526 8.87305 28.5526H21.4053C25.8232 28.5526 29.4048 24.9708 29.4048 20.5526V8.02063C29.4048 3.60242 25.8232 0.0206299 21.4053 0.0206299H8.87305ZM7.96191 8.74231C7.96191 9.59143 8.58838 10.278 9.55762 10.278C10.5864 10.278 11.2114 9.59143 11.2114 8.74231C11.1924 7.87585 10.5864 7.20984 9.59717 7.20984C8.60742 7.20984 7.96191 7.87585 7.96191 8.74231ZM8.04248 21.3636H11.1104V11.4901H8.04248V21.3636ZM22.3159 21.3636H19.248V15.8917C19.248 14.6183 18.8027 13.7533 17.6934 13.7533C16.8457 13.7533 16.3423 14.3387 16.1201 14.9022C16.0381 15.1027 16.0176 15.3868 16.0176 15.6693V21.3622H12.9478V14.6388C12.9478 13.9926 12.937 13.402 12.9204 12.8585C12.9058 12.3651 12.8867 11.9105 12.8672 11.4884H15.5327L15.6733 12.86H15.7349C16.1387 12.2162 17.1284 11.266 18.7842 11.266C20.8027 11.266 22.3159 12.6185 22.3159 15.5258V21.3636Z" fill="#6D28D9"></path>
</svg>