<svg width="29" height="29" viewBox="0 0 29 29" fill="none" xmlns="http://www.w3.org/2000/svg">
    <path d="M11.5679 8.89246H9.7417L17.8062 19.6803H19.6323L11.5679 8.89246Z" fill="#6D28D9"></path>
    <path fill-rule="evenodd" clip-rule="evenodd" d="M8.40479 0.0206299C3.98633 0.0206299 0.404785 3.60242 0.404785 8.02063V20.5526C0.404785 24.9708 3.98633 28.5526 8.40479 28.5526H20.937C25.355 28.5526 28.937 24.9708 28.937 20.5526V8.02063C28.937 3.60242 25.355 0.0206299 20.937 0.0206299H8.40479ZM13.1816 14.9315L8.02393 8.03162H11.999L15.3804 12.5551L19.5654 8.03162H20.7334L15.9023 13.2533L21.3506 20.5416H17.375L13.7036 15.63L9.15918 20.5416H7.99121L13.1816 14.9315Z" fill="#6D28D9"></path>
</svg>
