<svg width="20" height="20" viewBox="0 0 20 20" fill="none" xmlns="http://www.w3.org/2000/svg">
<path fill-rule="evenodd" clip-rule="evenodd" d="M8.56289 1.87919C8.63254 1.87498 8.70617 1.87499 8.80076 1.875H11.1996C11.2942 1.87499 11.3678 1.87498 11.4374 1.87919C12.3211 1.93271 13.095 2.49046 13.4252 3.31188C13.4512 3.37662 13.4745 3.4465 13.5044 3.53623L13.5069 3.54379C13.5764 3.73077 13.7357 3.94338 13.9589 4.11324C13.9837 4.13215 14.0086 4.15 14.0336 4.16681C15.8285 4.1689 16.7654 4.20204 17.4112 4.72748C17.5437 4.83527 17.6647 4.95635 17.7725 5.08883C18.3333 5.77808 18.3333 6.79898 18.3333 8.84077C18.3333 9.35888 18.3333 9.61793 18.2077 9.82C18.1832 9.85937 18.1555 9.89662 18.1248 9.93137C17.9674 10.1098 17.7193 10.1842 17.223 10.3331L13.3333 11.5V10.8333C13.3333 9.91286 12.5871 9.16667 11.6667 9.16667H8.33334C7.41286 9.16667 6.66667 9.91286 6.66667 10.8333V11.5L2.77701 10.3331C2.28076 10.1842 2.03263 10.1098 1.87518 9.93137C1.84451 9.89662 1.81679 9.85937 1.79232 9.82C1.66667 9.61793 1.66667 9.35888 1.66667 8.84077C1.66667 6.79898 1.66667 5.77808 2.22749 5.08883C2.33528 4.95635 2.45636 4.83527 2.58883 4.72748C3.23461 4.20204 4.17152 4.1689 5.96645 4.16681C5.9914 4.14999 6.01635 4.13213 6.0412 4.11321C6.26441 3.94332 6.42379 3.7307 6.49324 3.54375C6.52488 3.44886 6.54853 3.37807 6.57514 3.31188C6.90537 2.49046 7.67919 1.93271 8.56289 1.87919ZM12.3489 4.01509C12.3691 4.0664 12.3913 4.11695 12.4154 4.16667H7.58478C7.60883 4.11703 7.631 4.06656 7.65113 4.01535L7.65242 4.01244L7.65589 4.00418L7.65996 3.99408L7.66378 3.98411L7.66681 3.97582L7.66829 3.97164L7.67182 3.96144L7.67501 3.95203L7.67676 3.94681L7.67903 3.93986L7.6809 3.934L7.68239 3.92918C7.71475 3.83227 7.72531 3.80205 7.73493 3.77813C7.88503 3.40475 8.23677 3.15124 8.63845 3.12691C8.66534 3.12528 8.69829 3.125 8.81777 3.125H11.1825C11.302 3.125 11.335 3.12528 11.3619 3.12691C11.7635 3.15124 12.1153 3.40475 12.2654 3.77813C12.2749 3.8017 12.2849 3.83081 12.3177 3.92916L12.3192 3.93392L12.3211 3.93982L12.3234 3.94678L12.3251 3.952L12.3283 3.96139L12.3318 3.97157L12.3333 3.97574L12.3363 3.98401L12.3401 3.99392L12.3441 4.00393L12.3476 4.01207L12.3489 4.01509ZM11.6667 10.4167H8.33334C8.10322 10.4167 7.91667 10.6032 7.91667 10.8333V12.6346C7.91667 12.8049 8.0204 12.9582 8.17859 13.0214L8.76204 13.2548C9.55674 13.5727 10.4433 13.5727 11.238 13.2548L11.8214 13.0214C11.9796 12.9582 12.0833 12.8049 12.0833 12.6346V10.8333C12.0833 10.6032 11.8968 10.4167 11.6667 10.4167ZM6.67564 12.8076L2.50489 11.5564C2.52996 14.1518 2.68158 16.5421 3.59827 17.3569C4.69662 18.3332 6.46438 18.3332 9.99992 18.3332C13.5355 18.3332 15.3032 18.3332 16.4016 17.3569C17.3183 16.5421 17.4699 14.1518 17.4949 11.5564L13.3244 12.8076C13.2608 13.4182 12.8644 13.9506 12.2857 14.182L11.7022 14.4154C10.6095 14.8525 9.39051 14.8525 8.2978 14.4154L7.71435 14.182C7.13567 13.9506 6.73919 13.4182 6.67564 12.8076Z" fill="#1C274C"/>
</svg>
