<svg width="20" height="20" viewBox="0 0 20 20" fill="none" xmlns="http://www.w3.org/2000/svg">
<path d="M9.99999 18.3336C14.6024 18.3336 18.3333 16.6546 18.3333 14.5836C18.3333 13.528 17.3642 12.5744 15.8045 11.8929C14.8528 13.6394 13.4014 15.1448 11.5579 15.9326C10.567 16.3561 9.43297 16.3561 8.44206 15.9326C6.59855 15.1448 5.14721 13.6394 4.19547 11.8929C2.63578 12.5744 1.66666 13.528 1.66666 14.5836C1.66666 16.6546 5.39762 18.3336 9.99999 18.3336Z" fill="#6B7280"/>
<path fill-rule="evenodd" clip-rule="evenodd" d="M4.16666 7.09555C4.16666 4.09727 6.77833 1.66669 9.99999 1.66669C13.2217 1.66669 15.8333 4.09727 15.8333 7.09555C15.8333 10.0703 13.9715 13.5416 11.0667 14.783C10.3896 15.0724 9.61043 15.0724 8.93327 14.783C6.02846 13.5416 4.16666 10.0703 4.16666 7.09555ZM9.99999 9.16669C10.9205 9.16669 11.6667 8.42049 11.6667 7.50002C11.6667 6.57955 10.9205 5.83335 9.99999 5.83335C9.07952 5.83335 8.33332 6.57955 8.33332 7.50002C8.33332 8.42049 9.07952 9.16669 9.99999 9.16669Z" fill="#6B7280"/>
</svg>
