<svg width="20" height="21" viewBox="0 0 20 21" fill="none" xmlns="http://www.w3.org/2000/svg">
                  <path fill-rule="evenodd" clip-rule="evenodd"
                     d="M4.29303 4.79308C4.48056 4.60561 4.73487 4.50029 5.00003 4.50029C5.26519 4.50029 5.5195 4.60561 5.70703 4.79308L10 9.08608L14.293 4.79308C14.3853 4.69757 14.4956 4.62139 14.6176 4.56898C14.7396 4.51657 14.8709 4.48898 15.0036 4.48783C15.1364 4.48668 15.2681 4.51198 15.391 4.56226C15.5139 4.61254 15.6255 4.68679 15.7194 4.78069C15.8133 4.87458 15.8876 4.98623 15.9379 5.10913C15.9881 5.23202 16.0134 5.3637 16.0123 5.49648C16.0111 5.62926 15.9835 5.76048 15.9311 5.88249C15.8787 6.00449 15.8025 6.11483 15.707 6.20708L11.414 10.5001L15.707 14.7931C15.8892 14.9817 15.99 15.2343 15.9877 15.4965C15.9854 15.7587 15.8803 16.0095 15.6948 16.1949C15.5094 16.3803 15.2586 16.4855 14.9964 16.4878C14.7342 16.49 14.4816 16.3892 14.293 16.2071L10 11.9141L5.70703 16.2071C5.51843 16.3892 5.26583 16.49 5.00363 16.4878C4.74143 16.4855 4.49062 16.3803 4.30521 16.1949C4.1198 16.0095 4.01463 15.7587 4.01236 15.4965C4.01008 15.2343 4.11087 14.9817 4.29303 14.7931L8.58603 10.5001L4.29303 6.20708C4.10556 6.01955 4.00024 5.76525 4.00024 5.50008C4.00024 5.23492 4.10556 4.98061 4.29303 4.79308Z"
                     fill="#111928" />
               </svg>