<svg width="20" height="20" viewBox="0 0 20 20" fill="none" xmlns="http://www.w3.org/2000/svg">
<path d="M18.3333 17.7083H17.2917V9.16668C17.2917 7.15001 16.1833 6.04168 14.1667 6.04168H10.625V5.01668C11.1083 5.13335 11.5917 5.20001 12.0833 5.20001C12.8667 5.20001 13.65 5.05001 14.4 4.75001C14.6333 4.65835 14.7917 4.42501 14.7917 4.16668V1.66668C14.7917 1.45835 14.6917 1.26668 14.5167 1.15001C14.3417 1.03335 14.125 1.00835 13.9333 1.08335C12.7417 1.55835 11.425 1.55835 10.2333 1.08335C10.0417 1.00835 9.82499 1.03335 9.64999 1.15001C9.47499 1.26668 9.37499 1.45835 9.37499 1.66668V4.16668V6.04168H5.83332C3.81666 6.04168 2.70832 7.15001 2.70832 9.16668V17.7083H1.66666C1.32499 17.7083 1.04166 17.9917 1.04166 18.3333C1.04166 18.675 1.32499 18.9583 1.66666 18.9583H3.33332H16.6667H18.3333C18.675 18.9583 18.9583 18.675 18.9583 18.3333C18.9583 17.9917 18.675 17.7083 18.3333 17.7083ZM6.03332 17.7083H3.95832V10.625H6.03332V17.7083ZM9.36666 17.7083H7.28332V10.625H9.36666V17.7083ZM12.7 17.7083H10.6167V10.625H12.7V17.7083ZM16.0417 17.7083H13.95V10.625H16.0417V17.7083Z" fill="#6B7280"/>
</svg>
