<svg width="32" height="32" viewBox="0 0 32 32" fill="none" xmlns="http://www.w3.org/2000/svg"><rect width="32" height="32" rx="4" fill="#EDE9FE"></rect><path d="M18.9391 8C19.5922 8 20.125 8.53152 20.125 9.18723C20.125 9.47469 20.0219 9.75313 19.8328 9.96797L15.3125 15.1328V23.4516C15.3125 24.0316 14.8441 24.5 14.2641 24.5C14.0363 24.5 13.8172 24.427 13.6324 24.2895L10.3582 21.8188C10.0145 21.5566 9.8125 21.1527 9.8125 20.7188V15.1328L5.29373 9.96797C5.10437 9.75313 5 9.47469 5 9.18723C5 8.53152 5.53152 8 6.18723 8H18.9391ZM11.1875 14.875V20.7188L13.9375 22.7941V14.8363C13.9375 14.7074 13.9977 14.5484 14.0707 14.4238L18.5223 9.33633H6.60102L11.0156 14.4238C11.1273 14.5484 11.1488 14.7074 11.1488 14.8363L11.1875 14.875ZM26.3125 22.4375C26.6906 22.4375 27 22.7469 27 23.125C27 23.5031 26.6906 23.8125 26.3125 23.8125H19.4375C19.0594 23.8125 18.75 23.5031 18.75 23.125C18.75 22.7469 19.0594 22.4375 19.4375 22.4375H26.3125ZM18.75 16.25C18.75 15.8719 19.0594 15.5625 19.4375 15.5625H26.3125C26.6906 15.5625 27 15.8719 27 16.25C27 16.6281 26.6906 16.9375 26.3125 16.9375H19.4375C19.0594 16.9375 18.75 16.6281 18.75 16.25ZM26.3125 8.6875C26.6906 8.6875 27 8.99516 27 9.375C27 9.75313 26.6906 10.0625 26.3125 10.0625H22.1875C21.8094 10.0625 21.5 9.75313 21.5 9.375C21.5 8.99516 21.8094 8.6875 22.1875 8.6875H26.3125Z" fill="#6D28D9"></path></svg>