<svg width="20" height="20" viewBox="0 0 20 20" fill="none" xmlns="http://www.w3.org/2000/svg">
<path d="M10.9731 5.22746C10.9731 6.99655 9.51368 8.43067 7.71342 8.43067C5.91316 8.43067 4.45376 6.99655 4.45376 5.22746C4.45376 3.45838 5.91316 2.02425 7.71342 2.02425C9.51368 2.02425 10.9731 3.45838 10.9731 5.22746Z" fill="#6B7280"/>
<path d="M14.2328 14.4367C14.2328 16.4269 14.2328 18.0403 7.71342 18.0403C1.19409 18.0403 1.19409 16.4269 1.19409 14.4367C1.19409 12.4465 4.11289 10.8331 7.71342 10.8331C11.3139 10.8331 14.2328 12.4465 14.2328 14.4367Z" fill="#6B7280"/>
<path d="M11.5631 8.73387C11.1839 8.73239 11.0051 8.2399 11.2394 7.94686C11.8383 7.19805 12.1955 6.25375 12.1955 5.22746C12.1955 4.2498 11.8714 3.34653 11.3229 2.61579C11.1533 2.38989 11.2268 2.05683 11.508 2.00752C11.6997 1.97391 11.8931 1.95972 12.086 1.95972C13.6134 1.95972 15.0131 2.56363 15.66 7.23599C15.66 8.73472 14.9054 8.73472 12.2015 8.73472H12.1898C11.9685 8.73472 11.7598 8.73464 11.5631 8.73387Z" fill="#6B7280"/>
<path d="M15.0211 16.9199C14.8403 17.262 15.0956 17.7893 15.4838 17.7334C18.8059 17.2547 18.8059 15.9054 18.8059 14.3158C18.8059 12.4501 16.2412 10.9157 12.9543 10.7308C12.8913 10.7273 12.8677 10.8112 12.9228 10.8416C14.279 11.5913 15.4553 12.8149 15.4553 14.4367C15.4553 14.4755 15.4554 14.5155 15.4556 14.5566C15.4575 15.1904 15.4604 16.0886 15.0211 16.9199Z" fill="#6B7280"/>
</svg>
