<svg width="18" height="18" viewBox="0 0 18 18" fill="none" xmlns="http://www.w3.org/2000/svg">
<rect width="18" height="18" rx="4" fill="#FDF6B2"/>
<path d="M13.4842 10.221L13.5912 9.22658C13.6482 8.69602 13.6859 8.34568 13.6563 8.12494L13.6667 8.125C14.1499 8.125 14.5417 7.73325 14.5417 7.25C14.5417 6.76675 14.1499 6.375 13.6667 6.375C13.1834 6.375 12.7917 6.76675 12.7917 7.25C12.7917 7.46855 12.8718 7.66839 13.0043 7.82174C12.8141 7.93913 12.5654 8.18683 12.1911 8.55966L12.1911 8.55967L12.1911 8.55967C11.9028 8.8469 11.7586 8.99052 11.5978 9.01276C11.5086 9.02508 11.4178 9.01241 11.3355 8.97617C11.187 8.91078 11.088 8.73323 10.89 8.37814L9.84609 6.50648C9.72392 6.28743 9.62166 6.10408 9.52947 5.95655C9.90767 5.76359 10.1667 5.37037 10.1667 4.91667C10.1667 4.27233 9.64433 3.75 9 3.75C8.35566 3.75 7.83333 4.27233 7.83333 4.91667C7.83333 5.37037 8.09232 5.76359 8.47052 5.95655C8.37832 6.10409 8.27608 6.28741 8.1539 6.50648L7.11003 8.37814C6.91199 8.73323 6.81297 8.91078 6.66445 8.97617C6.58216 9.01241 6.49135 9.02508 6.40224 9.01276C6.2414 8.99052 6.09722 8.8469 5.80887 8.55967C5.43458 8.18684 5.18591 7.93913 4.99572 7.82174C5.1282 7.66839 5.20833 7.46855 5.20833 7.25C5.20833 6.76675 4.81658 6.375 4.33333 6.375C3.85008 6.375 3.45833 6.76675 3.45833 7.25C3.45833 7.73325 3.85008 8.125 4.33333 8.125L4.34366 8.12494C4.31409 8.34568 4.35177 8.69602 4.40884 9.22658L4.5158 10.221C4.57517 10.7729 4.62454 11.2981 4.685 11.7708H13.315C13.3755 11.2981 13.4248 10.7729 13.4842 10.221Z" fill="#C27803"/>
<path d="M8.36536 14.25H9.63463C11.2889 14.25 12.1161 14.25 12.668 13.756C12.9088 13.5404 13.0614 13.1517 13.1714 12.6458H4.82855C4.93862 13.1517 5.09116 13.5404 5.33204 13.756C5.88393 14.25 6.71107 14.25 8.36536 14.25Z" fill="#C27803"/>
</svg>
