<svg width="20" height="20" viewBox="0 0 20 20" fill="none" xmlns="http://www.w3.org/2000/svg">
<path d="M15.2974 1.3451C15.475 1.04911 15.8589 0.953134 16.1549 1.13073L15.8333 1.66666C16.1549 1.13073 16.1546 1.13056 16.1549 1.13073L16.156 1.13142L16.1574 1.13221L16.1604 1.13409L16.1684 1.13902C16.1746 1.14284 16.1823 1.1477 16.1914 1.15363C16.2098 1.16549 16.234 1.18164 16.2634 1.20217C16.3219 1.24318 16.4011 1.30193 16.4939 1.37923C16.6789 1.53347 16.921 1.76388 17.162 2.07726C17.6478 2.7087 18.125 3.67278 18.125 4.99999C18.125 6.3272 17.6478 7.29128 17.162 7.92273C16.921 8.2361 16.6789 8.46652 16.4939 8.62076C16.4011 8.69805 16.3219 8.7568 16.2634 8.79782C16.234 8.81835 16.2098 8.83449 16.1914 8.84635C16.1869 8.84931 16.1826 8.852 16.1788 8.85443C16.175 8.85688 16.1715 8.85905 16.1684 8.86096L16.1604 8.86589L16.1574 8.86777L16.156 8.86856C16.1558 8.86873 16.1549 8.86926 15.8333 8.33333L16.1549 8.86926C15.8589 9.04685 15.475 8.95087 15.2974 8.65489C15.1205 8.36015 15.215 7.97822 15.508 7.79965L15.5127 7.7967C15.5187 7.79277 15.5303 7.78515 15.5465 7.77378C15.5791 7.75099 15.6301 7.71339 15.6936 7.66048C15.821 7.5543 15.9957 7.38888 16.1713 7.16059C16.5189 6.7087 16.875 6.00611 16.875 4.99999C16.875 3.99387 16.5189 3.29128 16.1713 2.8394C15.9957 2.6111 15.821 2.44568 15.6936 2.33951C15.6301 2.28659 15.5791 2.24899 15.5465 2.22621C15.5303 2.21483 15.5187 2.20721 15.5127 2.20328L15.508 2.20034C15.215 2.02177 15.1205 1.63984 15.2974 1.3451Z" fill="#6B7280"/>
<path d="M8.33332 8.33333C10.1743 8.33333 11.6667 6.84094 11.6667 4.99999C11.6667 3.15904 10.1743 1.66666 8.33332 1.66666C6.49237 1.66666 4.99999 3.15904 4.99999 4.99999C4.99999 6.84094 6.49237 8.33333 8.33332 8.33333Z" fill="#6B7280"/>
<path d="M1.66666 14.5833C1.66666 16.6544 1.66666 18.3333 8.33332 18.3333C15 18.3333 15 16.6544 15 14.5833C15 12.5123 12.0152 10.8333 8.33332 10.8333C4.65143 10.8333 1.66666 12.5123 1.66666 14.5833Z" fill="#6B7280"/>
<path d="M14.4882 2.79739C14.1922 2.6198 13.8083 2.71578 13.6307 3.01177L13.8376 3.86468L13.8441 3.86911C13.8538 3.87594 13.8723 3.88946 13.8968 3.90982C13.946 3.95089 14.0165 4.01735 14.0879 4.11023C14.2272 4.29128 14.375 4.5772 14.375 4.99999C14.375 5.42278 14.2272 5.7087 14.0879 5.88976C14.0165 5.98263 13.946 6.04909 13.8968 6.09017C13.8723 6.11053 13.8538 6.12404 13.8441 6.13088L13.8376 6.13531C13.5475 6.31485 13.4546 6.69475 13.6307 6.98822C13.8083 7.28421 14.1922 7.38019 14.4882 7.20259L14.1667 6.66666C14.4882 7.20259 14.4879 7.20276 14.4882 7.20259L14.4893 7.20192L14.4905 7.2012L14.4932 7.19959L14.4994 7.19576L14.5154 7.18558C14.5276 7.17767 14.5429 7.16747 14.5609 7.15492C14.5967 7.12985 14.6433 7.09519 14.697 7.05044C14.8039 6.96131 14.9418 6.82985 15.0787 6.6519C15.3561 6.29128 15.625 5.74387 15.625 4.99999C15.625 4.25611 15.3561 3.7087 15.0787 3.34809C14.9418 3.17013 14.8039 3.03868 14.697 2.94954C14.6433 2.9048 14.5967 2.87014 14.5609 2.84507C14.5429 2.83252 14.5276 2.82231 14.5154 2.8144L14.4994 2.80422L14.4932 2.80039L14.4905 2.79879L14.4893 2.79807C14.4891 2.7979 14.4882 2.79739 14.1667 3.33333L14.4882 2.79739Z" fill="#6B7280"/>
</svg>
