<svg width="20" height="20" viewBox="0 0 20 20" fill="none" xmlns="http://www.w3.org/2000/svg">
<path fill-rule="evenodd" clip-rule="evenodd" d="M10.4922 17.6664V5.83645L15.5759 5.83645L13.2812 9.74985C13.1224 10.0206 13.3208 10.359 13.6384 10.359H18.6056C18.9231 10.359 19.1215 10.0206 18.9628 9.74985L16.6261 5.76494C16.821 5.6624 16.9537 5.46008 16.9537 5.22726C16.9537 4.89082 16.6767 4.61807 16.335 4.61807L10.4922 4.61807V2.17617C10.4922 1.84696 10.2152 1.58008 9.8735 1.58008C9.53179 1.58008 9.25478 1.84696 9.25478 2.17617V4.61807L3.58241 4.61808C3.2407 4.61808 2.96369 4.89082 2.96369 5.22726C2.96369 5.45694 3.09279 5.65694 3.28344 5.76074L0.944288 9.74985C0.785525 10.0206 0.983979 10.359 1.3015 10.359H6.26869C6.58622 10.359 6.78467 10.0206 6.62591 9.74985L4.33116 5.83645H9.25478L9.25478 17.6664H7.40355C7.13076 17.6664 6.90962 17.9391 6.90962 18.2756C6.90962 18.612 7.13076 18.8848 7.40355 18.8848H12.3434C12.6162 18.8848 12.8374 18.612 12.8374 18.2756C12.8374 17.9391 12.6162 17.6664 12.3434 17.6664H10.4922ZM3.7851 6.52971L2.01594 9.54679H5.55426L3.7851 6.52971ZM14.3528 9.54679L16.122 6.52971L17.8911 9.54679H14.3528Z" fill="#6B7280"/>
<path d="M3.84635 14.3585C5.5266 14.3585 6.91309 13.1201 7.11567 11.5198C7.14385 11.2972 6.95647 11.1145 6.72866 11.1145H0.964043C0.736238 11.1145 0.548857 11.2972 0.577032 11.5198C0.779616 13.1201 2.1661 14.3585 3.84635 14.3585Z" fill="#6B7280"/>
<path d="M19.4227 11.5198C19.2201 13.1201 17.8337 14.3585 16.1534 14.3585C14.4732 14.3585 13.0867 13.1201 12.8841 11.5198C12.8559 11.2972 13.0433 11.1145 13.2711 11.1145H19.0357C19.2635 11.1145 19.4509 11.2972 19.4227 11.5198Z" fill="#6B7280"/>
</svg>
