<svg width="20" height="21" viewBox="0 0 20 21" fill="none" xmlns="http://www.w3.org/2000/svg">
<path d="M10 18.8336C14.6024 18.8336 18.3333 17.1546 18.3333 15.0836C18.3333 14.028 17.3642 13.0744 15.8045 12.3929C14.8528 14.1394 13.4014 15.6448 11.5579 16.4326C10.567 16.8561 9.43298 16.8561 8.44208 16.4326C6.59857 15.6448 5.14723 14.1394 4.19549 12.3929C2.6358 13.0744 1.66667 14.028 1.66667 15.0836C1.66667 17.1546 5.39763 18.8336 10 18.8336Z" fill="#1C274C"/>
<path fill-rule="evenodd" clip-rule="evenodd" d="M4.16667 7.59555C4.16667 4.59727 6.77834 2.16669 10 2.16669C13.2217 2.16669 15.8333 4.59727 15.8333 7.59555C15.8333 10.5703 13.9715 14.0416 11.0667 15.283C10.3896 15.5724 9.61044 15.5724 8.93328 15.283C6.02847 14.0416 4.16667 10.5703 4.16667 7.59555ZM10 9.66669C10.9205 9.66669 11.6667 8.92049 11.6667 8.00002C11.6667 7.07955 10.9205 6.33335 10 6.33335C9.07953 6.33335 8.33334 7.07955 8.33334 8.00002C8.33334 8.92049 9.07953 9.66669 10 9.66669Z" fill="#1C274C"/>
</svg>
