<svg width="20" height="20" viewBox="0 0 20 20" fill="none" xmlns="http://www.w3.org/2000/svg">
<path fill-rule="evenodd" clip-rule="evenodd" d="M18.3333 10.0001C18.3333 14.6025 14.6024 18.3334 9.99999 18.3334C5.39762 18.3334 1.66666 14.6025 1.66666 10.0001C1.66666 5.39771 5.39762 1.66675 9.99999 1.66675C14.6024 1.66675 18.3333 5.39771 18.3333 10.0001ZM9.99999 6.45842C9.48222 6.45842 9.06249 6.87815 9.06249 7.39592C9.06249 7.74109 8.78267 8.02092 8.43749 8.02092C8.09231 8.02092 7.81249 7.74109 7.81249 7.39592C7.81249 6.18779 8.79187 5.20841 9.99999 5.20841C11.2081 5.20841 12.1875 6.18779 12.1875 7.39592C12.1875 7.98828 11.9512 8.52673 11.5691 8.92005C11.4922 8.9992 11.4189 9.07247 11.3489 9.14238C11.1691 9.32209 11.0115 9.47953 10.8732 9.65716C10.6907 9.89168 10.625 10.0641 10.625 10.2084V10.8334C10.625 11.1786 10.3452 11.4584 9.99999 11.4584C9.65481 11.4584 9.37499 11.1786 9.37499 10.8334V10.2084C9.37499 9.66242 9.62916 9.22045 9.8868 8.88942C10.0774 8.64449 10.317 8.40537 10.5115 8.2113C10.5701 8.15276 10.6247 8.09832 10.6725 8.04906C10.8371 7.87961 10.9375 7.65012 10.9375 7.39592C10.9375 6.87815 10.5178 6.45842 9.99999 6.45842ZM9.99999 14.1667C10.4602 14.1667 10.8333 13.7937 10.8333 13.3334C10.8333 12.8732 10.4602 12.5001 9.99999 12.5001C9.53975 12.5001 9.16666 12.8732 9.16666 13.3334C9.16666 13.7937 9.53975 14.1667 9.99999 14.1667Z" fill="#1C274C"/>
</svg>
