<svg width="14" height="14" viewBox="0 0 14 14" fill="none" xmlns="http://www.w3.org/2000/svg">
<g clip-path="url(#clip0_5544_105)">
<path fill-rule="evenodd" clip-rule="evenodd" d="M6.70834 1.60419C3.88938 1.60419 1.60417 3.8894 1.60417 6.70835C1.60417 9.52731 3.88938 11.8125 6.70834 11.8125C9.52729 11.8125 11.8125 9.52731 11.8125 6.70835C11.8125 3.8894 9.52729 1.60419 6.70834 1.60419ZM0.729172 6.70835C0.729172 3.40615 3.40614 0.729187 6.70834 0.729187C10.0105 0.729187 12.6875 3.40615 12.6875 6.70835C12.6875 8.20199 12.1398 9.5677 11.2343 10.6156L13.1427 12.524C13.3136 12.6948 13.3136 12.9719 13.1427 13.1427C12.9718 13.3136 12.6948 13.3136 12.524 13.1427L10.6156 11.2344C9.56769 12.1398 8.20197 12.6875 6.70834 12.6875C3.40614 12.6875 0.729172 10.0106 0.729172 6.70835Z" fill="#1C274C"/>
</g>
<defs>
<clipPath id="clip0_5544_105">
<rect width="14" height="14" fill="white"/>
</clipPath>
</defs>
</svg>
