<svg width="20" height="20" viewBox="0 0 20 20" fill="none" xmlns="http://www.w3.org/2000/svg">
<path d="M11.8477 2.91637C10.6635 2.36121 9.33644 2.36121 8.15227 2.91637L2.57634 5.53049C1.67967 5.95087 1.44589 7.13627 1.87501 7.95555L1.87501 12.0833C1.87501 12.4285 2.15483 12.7083 2.50001 12.7083C2.84518 12.7083 3.12501 12.4285 3.12501 12.0833V8.89336L8.15234 11.2503C9.33652 11.8055 10.6636 11.8055 11.8477 11.2503L17.4237 8.63617C18.6366 8.06754 18.6366 6.09916 17.4237 5.53053L11.8477 2.91637Z" fill="#1C274D"/>
<path d="M4.16667 10.7623V13.8545C4.16667 14.6945 4.58626 15.481 5.32112 15.888C6.54476 16.5656 8.50333 17.5 10 17.5C11.4967 17.5 13.4553 16.5656 14.6789 15.888C15.4138 15.481 15.8333 14.6945 15.8333 13.8545V10.7623L12.3784 12.3821C10.858 13.0949 9.14209 13.0949 7.62173 12.3821L4.16667 10.7623Z" fill="#1C274D"/>
</svg>
