<svg width="167" height="43" viewBox="0 0 167 43" fill="none" xmlns="http://www.w3.org/2000/svg">
<path d="M17.4925 42.8337H17.4209C13.338 42.8337 10.0195 39.5109 10.0195 35.4299V19.353C10.0195 18.3702 9.2192 17.5696 8.23669 17.5696C7.25417 17.5696 6.45384 18.3702 6.45384 19.353V29.2562H0.832031V19.353C0.832031 15.2687 4.15372 11.9492 8.23343 11.9492C12.3132 11.9492 15.6381 15.2719 15.6381 19.353V35.4299C15.6381 36.4127 16.4384 37.2133 17.4209 37.2133H17.4925C18.475 37.2133 19.2754 36.4127 19.2754 35.4299V19.353C19.2754 15.2687 22.597 11.9492 26.6768 11.9492H26.8199C30.9029 11.9492 34.2213 15.2719 34.2213 19.353V34.9287H28.5995V19.353C28.5995 18.3702 27.7992 17.5696 26.8166 17.5696H26.6735C25.691 17.5696 24.8907 18.3702 24.8907 19.353V35.4299C24.8907 39.5142 21.569 42.8337 17.4893 42.8337H17.4925Z" fill="url(#paint0_linear_5542_5041)"/>
<path d="M26.7526 9.84903C29.4324 9.84903 31.6049 7.68163 31.6049 5.00801C31.6049 2.33439 29.4324 0.166992 26.7526 0.166992C24.0728 0.166992 21.9004 2.33439 21.9004 5.00801C21.9004 7.68163 24.0728 9.84903 26.7526 9.84903Z" fill="#7C3AED"/>
<path d="M8.06482 9.84903C10.298 9.84903 12.1083 8.04286 12.1083 5.81485C12.1083 3.58683 10.298 1.78067 8.06482 1.78067C5.83165 1.78067 4.0213 3.58683 4.0213 5.81485C4.0213 8.04286 5.83165 9.84903 8.06482 9.84903Z" fill="#F59E0B"/>
<path d="M161.931 8.15561C162.442 7.64367 163.06 7.3877 163.784 7.3877C164.507 7.3877 165.126 7.64367 165.637 8.15561C166.147 8.66755 166.403 9.28809 166.403 10.0133C166.403 10.7386 166.147 11.3591 165.637 11.8711C165.126 12.383 164.507 12.639 163.784 12.639C163.06 12.639 162.442 12.383 161.931 11.8711C161.42 11.3591 161.165 10.7386 161.165 10.0133C161.165 9.28809 161.42 8.66755 161.931 8.15561ZM163.784 12.4218C164.438 12.4218 165.002 12.1891 165.466 11.7198C165.931 11.2505 166.163 10.6804 166.163 10.0133C166.163 9.34626 165.931 8.77614 165.466 8.30686C165.002 7.83758 164.438 7.60488 163.784 7.60488C163.13 7.60488 162.558 7.83758 162.093 8.30686C161.629 8.77614 161.393 9.34626 161.393 10.0133C161.393 10.6804 161.625 11.2505 162.093 11.7198C162.558 12.1891 163.122 12.4218 163.784 12.4218ZM164.848 9.54018C164.848 9.91638 164.697 10.1801 164.391 10.3314L164.948 11.3552H164.341L163.869 10.4477H163.478V11.3552H162.921V8.67143H163.826C164.14 8.67143 164.387 8.75675 164.573 8.92352C164.759 9.09029 164.848 9.29584 164.848 9.54406V9.54018ZM163.478 9.19113V9.93965H163.826C163.969 9.93965 164.086 9.90474 164.167 9.83881C164.248 9.769 164.291 9.6798 164.291 9.57121C164.291 9.31911 164.136 9.19501 163.826 9.19501H163.478V9.19113Z" fill="#6D28D9"/>
<path d="M80.0158 26.3396C78.4586 27.8303 76.5535 28.5774 74.3075 28.5774C72.0615 28.5774 70.1636 27.8303 68.6172 26.3396C67.0709 24.8489 66.2959 23.0193 66.2959 20.8541C66.2959 18.689 67.0709 16.8593 68.6172 15.3686C70.1672 13.8779 72.0615 13.1309 74.3075 13.1309C76.5535 13.1309 78.455 13.8779 80.0158 15.3686C81.5729 16.8593 82.3514 18.689 82.3514 20.8541C82.3514 23.0193 81.5729 24.8489 80.0158 26.3396ZM71.3799 23.7491C72.1584 24.51 73.1343 24.8904 74.3075 24.8904C75.4807 24.8904 76.4638 24.51 77.2531 23.7491C78.0425 22.9882 78.4371 22.0232 78.4371 20.8507C78.4371 19.6782 78.0425 18.7132 77.2531 17.9523C76.4638 17.1914 75.4807 16.8109 74.3075 16.8109C73.1343 16.8109 72.1584 17.1914 71.3799 17.9523C70.6013 18.7132 70.2102 19.6782 70.2102 20.8507C70.2102 22.0232 70.5977 22.9882 71.3799 23.7491Z" fill="#6D28D9"/>
<path d="M96.6456 26.3396C95.0885 27.8303 93.187 28.5774 90.9374 28.5774C88.6878 28.5774 86.7935 27.8303 85.2471 26.3396C83.7008 24.8489 82.9258 23.0193 82.9258 20.8541C82.9258 18.689 83.7008 16.8593 85.2471 15.3686C86.7935 13.8779 88.6914 13.1309 90.9374 13.1309C93.1834 13.1309 95.0849 13.8779 96.6456 15.3686C98.2028 16.8593 98.9813 18.689 98.9813 20.8541C98.9813 23.0193 98.2028 24.8489 96.6456 26.3396ZM88.0097 23.7491C88.7883 24.51 89.7642 24.8904 90.9374 24.8904C92.1106 24.8904 93.0937 24.51 93.883 23.7491C94.6723 22.9882 95.067 22.0232 95.067 20.8507C95.067 19.6782 94.6723 18.7132 93.883 17.9523C93.0937 17.1914 92.1106 16.8109 90.9374 16.8109C89.7642 16.8109 88.7883 17.1914 88.0097 17.9523C87.2312 18.7132 86.8401 19.6782 86.8401 20.8507C86.8401 22.0232 87.2312 22.9882 88.0097 23.7491Z" fill="#6D28D9"/>
<path d="M116.92 28.8794L116.92 7.67969H121.064V28.8794H116.92Z" fill="#6D28D9"/>
<path d="M111.93 13.539V14.1892C110.714 13.4871 109.34 13.1309 107.801 13.1309C105.555 13.1309 103.657 13.8779 102.11 15.3686C100.564 16.8593 99.7891 18.689 99.7891 20.8541C99.7891 23.0193 100.564 24.8489 102.11 26.3396C103.657 27.8303 105.555 28.5774 107.801 28.5774C109.34 28.5774 110.714 28.2177 111.93 27.5191V35.3355H115.845V13.539H111.93ZM110.746 23.7525C109.957 24.5134 108.974 24.8939 107.801 24.8939C106.627 24.8939 105.652 24.5134 104.873 23.7525C104.094 22.9916 103.703 22.0266 103.703 20.8541C103.703 19.6816 104.094 18.7167 104.873 17.9557C105.652 17.1948 106.627 16.8144 107.801 16.8144C108.974 16.8144 109.957 17.1948 110.746 17.9557C111.536 18.7167 111.93 19.6816 111.93 20.8541C111.93 22.0266 111.536 22.9916 110.746 23.7525Z" fill="#6D28D9"/>
<path d="M133.991 13.4564V14.1931C132.775 13.491 131.4 13.1348 129.861 13.1348C127.615 13.1348 125.717 13.8818 124.171 15.3725C122.625 16.8632 121.85 18.6929 121.85 20.858C121.85 23.0232 122.625 24.8528 124.171 26.3435C125.717 27.8342 127.615 28.5813 129.861 28.5813C131.4 28.5813 132.775 28.2216 133.991 27.523V28.2597H137.977V13.4564H133.991ZM132.807 23.7564C132.018 24.5173 131.034 24.8978 129.861 24.8978C128.688 24.8978 127.712 24.5173 126.934 23.7564C126.155 22.9955 125.764 22.0305 125.764 20.858C125.764 19.6855 126.155 18.7206 126.934 17.9597C127.712 17.1987 128.688 16.8183 129.861 16.8183C131.034 16.8183 132.018 17.1987 132.807 17.9597C133.596 18.7206 133.991 19.6855 133.991 20.858C133.991 22.0305 133.596 22.9955 132.807 23.7564Z" fill="#6D28D9"/>
<path d="M60.9324 22.4867C60.9324 23.7111 59.8991 24.7107 58.629 24.7107C57.3589 24.7107 56.3256 23.7146 56.3256 22.4867V13.5391H52.1099V22.4902C52.1099 23.7146 51.0766 24.7141 49.8029 24.7141C48.5293 24.7141 47.4996 23.718 47.4996 22.4902V13.5391H43.2803V22.4902C43.2803 25.9558 46.2044 28.7781 49.8029 28.7781C51.5072 28.7781 53.0535 28.1417 54.216 27.1075C55.3784 28.1417 56.9248 28.7781 58.629 28.7781C62.224 28.7781 65.1517 25.9593 65.1517 22.4902V13.5391H60.936V22.4902L60.9324 22.4867Z" fill="#6D28D9"/>
<path d="M156.942 13.5391V22.4902C156.942 23.7146 155.909 24.7141 154.639 24.7141C153.369 24.7141 152.336 23.718 152.336 22.4902V13.5391H148.12V22.4902C148.12 23.7146 147.087 24.7141 145.813 24.7141C144.539 24.7141 143.51 23.718 143.51 22.4902V13.5391H139.294V22.4902C139.294 25.9558 142.218 28.7781 145.817 28.7781C147.521 28.7781 149.067 28.1417 150.23 27.1075C151.392 28.1417 152.938 28.7781 154.643 28.7781C158.238 28.7781 161.165 25.9593 161.165 22.4902V13.5391H156.95H156.942Z" fill="#6D28D9"/>
<defs>
<linearGradient id="paint0_linear_5542_5041" x1="0.832031" y1="18.6295" x2="34.2585" y2="18.6407" gradientUnits="userSpaceOnUse">
<stop stop-color="#F59E0B"/>
<stop offset="0.499604" stop-color="#F43F5E"/>
<stop offset="1" stop-color="#7C3AED"/>
</linearGradient>
</defs>
</svg>
