<svg width="57" height="25" viewBox="0 0 57 25" fill="none" xmlns="http://www.w3.org/2000/svg">
<path fill-rule="evenodd" clip-rule="evenodd" d="M7.83884 5.09915C8.89979 5.18837 9.96074 4.56387 10.6238 3.7721C11.2759 2.95803 11.7069 1.86517 11.5964 0.75C10.657 0.794607 9.49657 1.37449 8.83348 2.18857C8.22564 2.89112 7.70622 4.02859 7.83884 5.09915ZM20.4606 19.4626V2.07712H26.9258C30.2633 2.07712 32.5952 4.39666 32.5952 7.78677C32.5952 11.1769 30.2191 13.5187 26.8374 13.5187H23.1351V19.4626H20.4606ZM11.5854 5.31107C10.6507 5.25679 9.79786 5.59471 9.10899 5.86766C8.66569 6.04331 8.29029 6.19206 8.00469 6.19206C7.68419 6.19206 7.29329 6.03536 6.85441 5.85943C6.27932 5.6289 5.62184 5.36533 4.93236 5.37798C3.35198 5.40029 1.88213 6.30357 1.07536 7.74214C-0.582371 10.6193 0.644352 14.8792 2.24683 17.2211C3.03149 18.3808 3.97087 19.6521 5.20865 19.6075C5.75319 19.5868 6.14491 19.4191 6.55029 19.2455C7.01701 19.0456 7.50184 18.8381 8.25888 18.8381C8.98967 18.8381 9.4533 19.0402 9.89835 19.2343C10.3215 19.4189 10.7279 19.5961 11.3312 19.5852C12.6132 19.5629 13.42 18.4254 14.2046 17.2657C15.0514 16.0209 15.4235 14.8061 15.48 14.6217L15.4866 14.6004C15.4852 14.5991 15.4748 14.5942 15.4563 14.5857C15.1732 14.4549 13.0097 13.4555 12.9889 10.7754C12.9681 8.52585 14.705 7.38609 14.9784 7.20668L14.9785 7.20667L14.9785 7.20664C14.9951 7.19574 15.0063 7.18839 15.0114 7.18455C13.9062 5.53411 12.1822 5.35568 11.5854 5.31107ZM37.48 19.5964C39.1598 19.5964 40.7181 18.7377 41.4254 17.3772H41.4806V19.4626H43.9562V10.8089C43.9562 8.29977 41.9669 6.68278 38.9056 6.68278C36.0654 6.68278 33.9656 8.32207 33.8882 10.5747H36.2975C36.4964 9.50415 37.48 8.80159 38.8283 8.80159C40.4639 8.80159 41.3812 9.57106 41.3812 10.9873V11.9464L38.0436 12.1471C34.9381 12.3367 33.2583 13.6191 33.2583 15.8494C33.2583 18.1021 34.9934 19.5964 37.48 19.5964ZM38.1972 17.5333C36.7716 17.5333 35.8654 16.8419 35.8654 15.7825C35.8654 14.6897 36.7384 14.054 38.4072 13.9536L41.3801 13.7641V14.7454C41.3801 16.3736 40.0097 17.5333 38.1972 17.5333ZM52.1665 20.1429C51.0945 23.1873 49.8677 24.1909 47.2596 24.1909C47.0606 24.1909 46.3975 24.1686 46.2428 24.124V22.0387C46.4086 22.061 46.8175 22.0833 47.0275 22.0833C48.21 22.0833 48.8731 21.5814 49.282 20.2767L49.5251 19.5072L44.994 6.85008H47.79L50.9397 17.1208H50.995L54.1447 6.85008H56.8634L52.1665 20.1429ZM23.1349 4.35185H26.2183C28.5391 4.35185 29.8653 5.60083 29.8653 7.79771C29.8653 9.99459 28.5391 11.2547 26.2072 11.2547H23.1349V4.35185Z" fill="black"/>
</svg>
