<svg width="52" height="31" viewBox="0 0 52 31" fill="none" xmlns="http://www.w3.org/2000/svg">
<path fill-rule="evenodd" clip-rule="evenodd" d="M26.0635 26.8884C23.374 29.1591 19.8853 30.5298 16.0731 30.5298C7.56671 30.5298 0.670898 23.7048 0.670898 15.2857C0.670898 6.86664 7.56671 0.041626 16.0731 0.041626C19.8853 0.041626 23.374 1.41236 26.0635 3.68302C28.753 1.41237 32.2417 0.0416384 36.0539 0.0416384C44.5603 0.0416384 51.4561 6.86665 51.4561 15.2857C51.4561 23.7048 44.5603 30.5298 36.0539 30.5298C32.2417 30.5298 28.753 29.1591 26.0635 26.8884Z" fill="#ED0006"/>
<path fill-rule="evenodd" clip-rule="evenodd" d="M26.0654 26.8873C29.3765 24.0913 31.476 19.9312 31.476 15.2857C31.476 10.6403 29.3765 6.48013 26.0654 3.68409C28.7551 1.41279 32.2443 0.041626 36.0571 0.041626C44.5635 0.041626 51.4593 6.86664 51.4593 15.2857C51.4593 23.7048 44.5635 30.5298 36.0571 30.5298C32.2443 30.5298 28.7551 29.1586 26.0654 26.8873Z" fill="#F9A000"/>
<path fill-rule="evenodd" clip-rule="evenodd" d="M26.0642 26.8884C29.3761 24.0924 31.4761 19.9318 31.4761 15.2857C31.4761 10.6396 29.3761 6.47903 26.0642 3.68298C22.7524 6.47903 20.6523 10.6396 20.6523 15.2857C20.6523 19.9318 22.7524 24.0924 26.0642 26.8884Z" fill="#FF5E00"/>
</svg>
