<svg width="46" height="41" viewBox="0 0 46 41" fill="none" xmlns="http://www.w3.org/2000/svg">
<path fill-rule="evenodd" clip-rule="evenodd" d="M6.06343 27.9271H2.59663C2.35939 27.9271 2.15763 28.1044 2.12063 28.3452L0.718481 37.4868C0.690612 37.6672 0.826462 37.8298 1.0044 37.8298H2.65948C2.89672 37.8298 3.09848 37.6525 3.13548 37.4113L3.51366 34.9457C3.55013 34.7042 3.7524 34.5271 3.98914 34.5271H5.08661C7.37031 34.5271 8.68822 33.3907 9.0326 31.1388C9.18766 30.1537 9.03916 29.3796 8.5904 28.8373C8.09777 28.2422 7.2237 27.9271 6.06343 27.9271ZM6.4634 31.266C6.27385 32.5452 5.32335 32.5452 4.40431 32.5452H3.88116L4.24817 30.1561C4.26997 30.0118 4.39162 29.9054 4.53357 29.9054H4.77334C5.39938 29.9054 5.99 29.9054 6.2952 30.2723C6.47701 30.4914 6.53284 30.8166 6.4634 31.266ZM16.4265 31.225H14.7664C14.6249 31.225 14.5027 31.3313 14.4809 31.4758L14.4075 31.9532L14.2913 31.7803C13.9319 31.2438 13.1306 31.0645 12.3307 31.0645C10.496 31.0645 8.92914 32.4933 8.62395 34.4977C8.46537 35.4974 8.6908 36.4534 9.24232 37.1201C9.74832 37.7331 10.4723 37.9885 11.3334 37.9885C12.8116 37.9885 13.6314 37.0111 13.6314 37.0111L13.5573 37.4856C13.5294 37.667 13.6652 37.8296 13.8421 37.8296H15.3376C15.5755 37.8296 15.776 37.6523 15.8136 37.411L16.7109 31.568C16.7392 31.3883 16.6039 31.225 16.4265 31.225ZM14.1123 34.5476C13.9521 35.5229 13.1993 36.1776 12.2394 36.1776C11.7573 36.1776 11.3719 36.0187 11.1246 35.7174C10.8793 35.4182 10.7859 34.9922 10.864 34.518C11.0137 33.5509 11.7791 32.875 12.7245 32.875C13.1958 32.875 13.5791 33.0359 13.8315 33.3398C14.0844 33.6469 14.1848 34.0753 14.1123 34.5476ZM23.6 31.2247H25.2684C25.502 31.2247 25.6383 31.4942 25.5055 31.6913L19.9568 39.9273C19.867 40.0607 19.719 40.14 19.5609 40.14H17.8946C17.66 40.14 17.523 39.8684 17.6588 39.6709L19.3866 37.163L17.549 31.6177C17.4855 31.4249 17.6239 31.2247 17.8233 31.2247H19.4626C19.6756 31.2247 19.8635 31.3685 19.9249 31.5781L20.9001 34.9273L23.2012 31.4421C23.2913 31.306 23.4409 31.2247 23.6 31.2247Z" fill="#253B80"/>
<path fill-rule="evenodd" clip-rule="evenodd" d="M41.6874 37.4869L43.1102 28.1781C43.132 28.0336 43.2538 27.9272 43.3952 27.9268H44.997C45.1739 27.9268 45.3097 28.0898 45.2818 28.2703L43.8787 37.4114C43.8421 37.6526 43.6404 37.8299 43.4027 37.8299H41.9722C41.7953 37.8299 41.6595 37.6673 41.6874 37.4869ZM30.7911 27.9272H27.3237C27.087 27.9272 26.8852 28.1045 26.8482 28.3453L25.446 37.4869C25.4181 37.6673 25.5539 37.8299 25.7311 37.8299H27.5102C27.6755 37.8299 27.817 37.7059 27.8428 37.5371L28.2407 34.9458C28.2773 34.7043 28.4795 34.5273 28.7162 34.5273H29.8131C32.0973 34.5273 33.415 33.3908 33.7596 31.139C33.9151 30.1538 33.7657 29.3797 33.3171 28.8374C32.8247 28.2423 31.9514 27.9272 30.7911 27.9272ZM31.1911 31.2661C31.002 32.5453 30.0514 32.5453 29.1319 32.5453H28.6092L28.9768 30.1562C28.9986 30.0119 29.1192 29.9056 29.2616 29.9056H29.5013C30.127 29.9056 30.7181 29.9056 31.0231 30.2725C31.2051 30.4915 31.2605 30.8167 31.1911 31.2661ZM41.1533 31.2251H39.4943C39.3516 31.2251 39.2306 31.3315 39.2093 31.476L39.1358 31.9533L39.0192 31.7804C38.6599 31.2439 37.859 31.0647 37.059 31.0647C35.2243 31.0647 33.658 32.4935 33.3528 34.4978C33.1947 35.4975 33.4192 36.4535 33.9707 37.1202C34.4776 37.7332 35.2006 37.9886 36.0618 37.9886C37.5399 37.9886 38.3596 37.0112 38.3596 37.0112L38.2857 37.4857C38.2578 37.6671 38.3936 37.8297 38.5716 37.8297H40.0664C40.3031 37.8297 40.5049 37.6524 40.5419 37.4111L41.4397 31.5681C41.4672 31.3884 41.3313 31.2251 41.1533 31.2251ZM38.8393 34.5478C38.68 35.523 37.9263 36.1777 36.9661 36.1777C36.485 36.1777 36.0989 36.0188 35.8514 35.7175C35.606 35.4184 35.5138 34.9923 35.591 34.5181C35.7414 33.551 36.5059 32.8751 37.4513 32.8751C37.9228 32.8751 38.3059 33.036 38.5585 33.3399C38.8123 33.647 38.9127 34.0754 38.8393 34.5478Z" fill="#179BD7"/>
<path d="M18.8944 24.657L19.3207 21.8732L18.3713 21.8506H13.8379L16.9884 1.30845C16.998 1.24643 17.0299 1.1886 17.0764 1.14755C17.1228 1.10649 17.1824 1.08386 17.2443 1.08386H24.8883C27.4261 1.08386 29.1773 1.62689 30.0917 2.6987C30.5203 3.20151 30.7934 3.72693 30.9254 4.30516C31.0638 4.9119 31.0664 5.63676 30.9311 6.52087L30.9212 6.5854V7.15187L31.35 7.40162C31.7111 7.59853 31.9977 7.82396 32.2178 8.08207C32.5847 8.51197 32.8218 9.05835 32.922 9.70612C33.0255 10.3723 32.9912 11.1651 32.8218 12.0626C32.6262 13.095 32.31 13.9942 31.883 14.73C31.4901 15.4079 30.9897 15.9701 30.3957 16.406C29.8285 16.82 29.1545 17.1343 28.3926 17.3355C27.6541 17.533 26.8124 17.6329 25.8891 17.6329H25.2942C24.8689 17.6329 24.4555 17.7904 24.1313 18.0729C23.8062 18.3612 23.5908 18.7549 23.5249 19.1857L23.4801 19.4363L22.7271 24.3427L22.6928 24.5229C22.6839 24.5801 22.6685 24.6085 22.6457 24.6278C22.6253 24.6452 22.596 24.657 22.5673 24.657H18.8944Z" fill="#253B80"/>
<path d="M31.7552 6.651C31.7324 6.801 31.7064 6.95435 31.6771 7.11189C30.6688 12.4341 27.2202 14.2727 22.8153 14.2727H20.5727C20.034 14.2727 19.5801 14.6749 19.4961 15.2213L18.3478 22.7098L18.0227 24.8324C17.968 25.1911 18.2371 25.5146 18.589 25.5146H22.5669C23.0379 25.5146 23.4379 25.1626 23.512 24.685L23.5512 24.4771L24.3002 19.5898L24.3483 19.3218C24.4215 18.8425 24.8224 18.4905 25.2935 18.4905H25.8884C29.7422 18.4905 32.7592 16.8815 33.641 12.2254C34.0093 10.2804 33.8186 8.65636 32.8439 7.51414C32.549 7.16971 32.1831 6.88396 31.7552 6.651Z" fill="#179BD7"/>
<path d="M30.6987 6.21887C30.5448 6.17277 30.3858 6.13087 30.2227 6.09317C30.059 6.05631 29.891 6.02362 29.7184 5.99513C29.1136 5.89457 28.4511 5.8468 27.7413 5.8468H21.7499C21.6024 5.8468 21.4623 5.88115 21.3368 5.94317C21.0605 6.07976 20.8552 6.34877 20.8055 6.6781L19.5307 14.9794L19.4941 15.2216C19.5781 14.6752 20.032 14.273 20.5707 14.273H22.8133C27.2182 14.273 30.6671 12.4336 31.6751 7.11219C31.7051 6.95464 31.7304 6.8013 31.7532 6.6513C31.4982 6.51218 31.2218 6.39319 30.9244 6.29177C30.8512 6.26664 30.7754 6.24234 30.6987 6.21887Z" fill="#222D65"/>
<path d="M20.8074 6.67778C20.8571 6.34843 21.0626 6.07944 21.3387 5.94368C21.4651 5.88166 21.6045 5.8473 21.7518 5.8473H27.7434C28.4532 5.8473 29.1157 5.89507 29.7203 5.99564C29.8931 6.02412 30.0611 6.05681 30.2248 6.09367C30.3879 6.1314 30.5467 6.1733 30.7008 6.21938C30.7773 6.24285 30.8531 6.26714 30.9272 6.29145C31.2247 6.39284 31.501 6.51269 31.756 6.65096C32.056 4.68415 31.7537 3.34501 30.7196 2.13241C29.5795 0.797471 27.5217 0.225952 24.8887 0.225952H17.2444C16.7065 0.225952 16.2479 0.628177 16.1646 1.1754L12.9808 21.9287C12.918 22.3393 13.226 22.7098 13.6285 22.7098H18.3479L19.5328 14.9791L20.8074 6.67778Z" fill="#253B80"/>
</svg>
