<svg width="55" height="19" viewBox="0 0 55 19" fill="none" xmlns="http://www.w3.org/2000/svg">
<path fill-rule="evenodd" clip-rule="evenodd" d="M13.6789 17.9036H8.95361L5.41022 4.50813C5.24203 3.89194 4.88493 3.34719 4.35964 3.09045C3.04873 2.44523 1.60418 1.93174 0.0283203 1.67276V1.15703H7.64039C8.69096 1.15703 9.4789 1.93174 9.61022 2.83147L11.4487 12.4941L16.1717 1.15703H20.7657L13.6789 17.9036ZM23.3916 17.9036H18.929L22.6037 1.15703H27.0663L23.3916 17.9036ZM32.8414 5.79629C32.9728 4.89432 33.7607 4.3786 34.6799 4.3786C36.1245 4.24911 37.698 4.50809 39.0113 5.15107L39.7992 1.54546C38.486 1.02973 37.0414 0.770752 35.7305 0.770752C31.3992 0.770752 28.2475 3.0904 28.2475 6.30978C28.2475 8.75892 30.4799 10.0449 32.0558 10.8196C33.7607 11.5921 34.4173 12.1078 34.286 12.8803C34.286 14.039 32.9728 14.5547 31.6618 14.5547C30.086 14.5547 28.5101 14.1685 27.0679 13.5232L26.2799 17.1311C27.8558 17.7741 29.5607 18.033 31.1366 18.033C35.9932 18.1603 39.0113 15.8429 39.0113 12.3645C39.0113 7.98421 32.8414 7.72747 32.8414 5.79629V5.79629ZM54.6281 17.9036L51.0847 1.15703H47.2787C46.4907 1.15703 45.7028 1.67276 45.4402 2.44523L38.8787 17.9036H43.4726L44.3896 15.4567H50.0341L50.5594 17.9036H54.6281ZM47.9346 5.66677L49.2455 11.9783H45.5708L47.9346 5.66677Z" fill="#172B85"/>
</svg>
