<svg width="20" height="21" viewBox="0 0 20 21" fill="none" xmlns="http://www.w3.org/2000/svg">
<path d="M10.0003 18.8333C14.6027 18.8333 18.3337 17.1543 18.3337 15.0833C18.3337 14.0277 17.3645 13.074 15.8048 12.3926C14.8531 14.1391 13.4018 15.6445 11.5583 16.4323C10.5673 16.8558 9.4333 16.8558 8.4424 16.4323C6.59889 15.6445 5.14755 14.1391 4.19581 12.3926C2.63612 13.074 1.66699 14.0277 1.66699 15.0833C1.66699 17.1543 5.39795 18.8333 10.0003 18.8333Z" fill="#1C274C"/>
<path fill-rule="evenodd" clip-rule="evenodd" d="M4.16699 7.59585C4.16699 4.59758 6.77866 2.16699 10.0003 2.16699C13.222 2.16699 15.8337 4.59758 15.8337 7.59585C15.8337 10.5706 13.9719 14.0419 11.067 15.2833C10.3899 15.5727 9.61076 15.5727 8.9336 15.2833C6.02879 14.0419 4.16699 10.5706 4.16699 7.59585ZM10.0003 9.66699C10.9208 9.66699 11.667 8.9208 11.667 8.00033C11.667 7.07985 10.9208 6.33366 10.0003 6.33366C9.07985 6.33366 8.33366 7.07985 8.33366 8.00033C8.33366 8.9208 9.07985 9.66699 10.0003 9.66699Z" fill="#1C274C"/>
</svg>
