<svg width="14" height="13" viewBox="0 0 14 13" fill="none" xmlns="http://www.w3.org/2000/svg">
<path d="M11.6663 0.5H2.33301C1.3902 0.5 0.918794 0.5 0.625901 0.774798C0.333008 1.0496 0.333008 1.49188 0.333008 2.37644V2.83632C0.333008 3.52821 0.333008 3.87416 0.506075 4.16095C0.679141 4.44773 0.995323 4.62572 1.62769 4.9817L3.5697 6.07492C3.99398 6.31376 4.20612 6.43318 4.35802 6.56505C4.67433 6.83966 4.86906 7.16234 4.9573 7.55811C4.99967 7.74816 4.99967 7.97054 4.99967 8.41529L4.99967 10.1949C4.99967 10.8013 4.99967 11.1045 5.16762 11.3409C5.33557 11.5772 5.63386 11.6938 6.23044 11.927C7.48286 12.4166 8.10908 12.6614 8.55437 12.3829C8.99967 12.1044 8.99967 11.4679 8.99967 10.1949V8.41529C8.99967 7.97054 8.99967 7.74816 9.04205 7.55811C9.13029 7.16234 9.32502 6.83966 9.64133 6.56505C9.79323 6.43318 10.0054 6.31376 10.4296 6.07492L12.3717 4.9817C13.004 4.62572 13.3202 4.44773 13.4933 4.16095C13.6663 3.87416 13.6663 3.52821 13.6663 2.83632V2.37644C13.6663 1.49188 13.6663 1.0496 13.3734 0.774798C13.0806 0.5 12.6091 0.5 11.6663 0.5Z" fill="#6D28D9"/>
</svg>
