<svg width="178" height="60" viewBox="0 0 178 60" fill="none" xmlns="http://www.w3.org/2000/svg">
<g clip-path="url(#clip0_4102_27811)">
<path d="M163.405 0.0597621H14.6031C14.0607 0.0597621 13.5248 0.0597621 12.9839 0.0627121C12.531 0.0656621 12.0818 0.0742318 11.6246 0.0814446C10.6314 0.0930997 9.64051 0.180235 8.66057 0.342092C7.682 0.507473 6.73409 0.819263 5.8489 1.26692C4.96479 1.71836 4.15695 2.30496 3.45469 3.00544C2.74874 3.70395 2.16028 4.51134 1.71193 5.39655C1.26235 6.28 0.950606 7.2267 0.787471 8.20395C0.622785 9.17996 0.534166 10.1672 0.522409 11.1569C0.508683 11.6091 0.507233 12.0629 0.5 12.5152V46.6087C0.507233 47.0667 0.508683 47.5104 0.522409 47.9685C0.534169 48.9581 0.622788 49.9453 0.787471 50.9213C0.950156 51.8991 1.26192 52.8464 1.71193 53.7301C2.16008 54.6125 2.74862 55.4166 3.45469 56.1112C4.15428 56.8148 4.96265 57.4018 5.8489 57.8498C6.73409 58.2987 7.68189 58.6123 8.66057 58.7803C9.64067 58.9408 10.6315 59.028 11.6246 59.041C12.0818 59.0511 12.531 59.0568 12.9839 59.0568C13.5248 59.0598 14.0608 59.0598 14.6031 59.0598H163.405C163.936 59.0598 164.477 59.0598 165.008 59.0568C165.459 59.0568 165.921 59.0511 166.372 59.041C167.363 59.0287 168.352 58.9415 169.33 58.7803C170.312 58.6111 171.263 58.2976 172.153 57.8498C173.038 57.4016 173.846 56.8146 174.545 56.1112C175.249 55.4139 175.839 54.6104 176.292 53.7301C176.739 52.8457 177.048 51.8986 177.208 50.9213C177.373 49.9452 177.465 48.9582 177.483 47.9685C177.488 47.5104 177.488 47.0667 177.488 46.6087C177.5 46.0728 177.5 45.5399 177.5 44.9953V14.1256C177.5 13.5854 177.5 13.0496 177.488 12.5152C177.488 12.0629 177.488 11.6091 177.483 11.1568C177.465 10.1671 177.373 9.18004 177.208 8.20389C177.047 7.2272 176.739 6.28058 176.292 5.39649C175.379 3.62218 173.932 2.1779 172.153 1.26678C171.263 0.820224 170.312 0.508517 169.33 0.341959C168.352 0.179389 167.363 0.0922235 166.372 0.0812381C165.921 0.0740401 165.459 0.0653966 165.008 0.0625203C164.477 0.0595703 163.936 0.0595703 163.405 0.0595703V0.0597621Z" fill="#A6A6A6"/>
<path d="M12.9908 57.7688C12.5401 57.7688 12.1004 57.7631 11.6532 57.7531C10.727 57.741 9.80287 57.6606 8.88851 57.5125C8.03592 57.3661 7.20999 57.0937 6.43796 56.7043C5.67301 56.3182 4.97531 55.8119 4.3716 55.2049C3.75915 54.6049 3.24925 53.9091 2.86212 53.145C2.47072 52.3759 2.19985 51.5516 2.05895 50.7006C1.90678 49.7863 1.82445 48.8618 1.81267 47.935C1.80329 47.6239 1.79102 46.5882 1.79102 46.5882V12.5149C1.79102 12.5149 1.80409 11.495 1.81274 11.1954C1.82402 10.2701 1.90587 9.34704 2.05759 8.43412C2.19875 7.58087 2.46983 6.75413 2.86144 5.98253C3.24715 5.21894 3.75421 4.52262 4.36298 3.92055C4.97105 3.31276 5.67098 2.80386 6.43723 2.41241C7.20749 2.02431 8.03186 1.75385 8.88273 1.6101C9.80009 1.46048 10.7274 1.37959 11.6569 1.36811L12.9915 1.3501H165.001L166.351 1.36883C167.272 1.37974 168.191 1.45991 169.1 1.60865C169.96 1.75421 170.793 2.02656 171.572 2.41673C173.107 3.20563 174.356 4.45374 175.144 5.98613C175.529 6.7524 175.796 7.57239 175.935 8.41828C176.089 9.33868 176.175 10.269 176.192 11.2019C176.197 11.6196 176.197 12.0683 176.197 12.5149C176.208 13.068 176.208 13.5945 176.208 14.1253V44.995C176.208 45.5309 176.208 46.0538 176.197 46.581C176.197 47.0606 176.197 47.5 176.191 47.9523C176.174 48.8685 176.089 49.7823 175.938 50.6862C175.8 51.5433 175.531 52.3741 175.139 53.1494C174.75 53.9053 174.243 54.595 173.637 55.1933C173.033 55.8037 172.334 56.3129 171.567 56.7015C170.79 57.0939 169.959 57.3673 169.1 57.5125C168.186 57.6614 167.262 57.7418 166.335 57.7531C165.902 57.7631 165.448 57.7688 165.008 57.7688L163.405 57.7718L12.9908 57.7688Z" fill="black" fill-opacity="0.87"/>
<path d="M37.1363 30.0028C37.1522 28.7716 37.4802 27.5645 38.0896 26.4937C38.6991 25.423 39.5702 24.5233 40.622 23.8785C39.9538 22.9269 39.0723 22.1437 38.0476 21.5912C37.0228 21.0388 35.8829 20.7322 34.7185 20.6959C32.2347 20.4359 29.8267 22.178 28.561 22.178C27.2708 22.178 25.322 20.7217 23.2235 20.7648C21.8662 20.8085 20.5433 21.2021 19.3838 21.9072C18.2244 22.6124 17.2678 23.605 16.6075 24.7884C13.7468 29.7273 15.8806 36.9858 18.6209 40.9781C19.9919 42.933 21.5942 45.1166 23.6908 45.0392C25.7425 44.9543 26.5087 43.7346 28.9852 43.7346C31.4388 43.7346 32.1577 45.0392 34.2968 44.99C36.4984 44.9543 37.8854 43.0264 39.2083 41.053C40.1934 39.66 40.9514 38.1206 41.4543 36.4915C40.1753 35.9521 39.0838 35.0491 38.3159 33.8952C37.5481 32.7413 37.1378 31.3876 37.1363 30.0028Z" fill="white"/>
<path d="M33.0961 18.0705C34.2964 16.6336 34.8878 14.7866 34.7446 12.9219C32.9107 13.114 31.2167 13.988 30.0001 15.3698C29.4053 16.0449 28.9497 16.8302 28.6595 17.6809C28.3692 18.5317 28.2499 19.4311 28.3084 20.3278C29.2257 20.3373 30.1332 20.139 30.9625 19.748C31.7918 19.357 32.5213 18.7834 33.0961 18.0705Z" fill="white"/>
<path d="M63.0711 40.0904H56.0697L54.3884 45.0412H51.4229L58.0544 26.7246H61.1355L67.7671 45.0412H64.751L63.0711 40.0904ZM56.7948 37.8059H62.3446L59.6087 29.7711H59.5322L56.7948 37.8059Z" fill="white"/>
<path d="M82.0892 38.365C82.0892 42.5148 79.8619 45.1811 76.5006 45.1811C75.6491 45.2255 74.8023 45.0299 74.0571 44.6167C73.3119 44.2035 72.6985 43.5894 72.287 42.8447H72.2234V49.4591H69.4746V31.6871H72.1354V33.9083H72.1859C72.6163 33.1671 73.2401 32.5562 73.9909 32.1405C74.7418 31.7247 75.5916 31.5198 76.45 31.5474C79.8488 31.5474 82.0892 34.2266 82.0892 38.365ZM79.2638 38.365C79.2638 35.6613 77.8627 33.8838 75.7249 33.8838C73.6246 33.8838 72.2119 35.6987 72.2119 38.365C72.2119 41.0557 73.6246 42.8577 75.7249 42.8577C77.8627 42.8577 79.2638 41.0931 79.2638 38.365Z" fill="white"/>
<path d="M96.8285 38.3649C96.8285 42.5148 94.6011 45.181 91.2398 45.181C90.3884 45.2255 89.5415 45.0299 88.7964 44.6167C88.0512 44.2035 87.4378 43.5894 87.0263 42.8446H86.9627V49.4591H84.2139V31.6871H86.8746V33.9082H86.9251C87.3555 33.1671 87.9793 32.5562 88.7302 32.1405C89.481 31.7247 90.3308 31.5198 91.1892 31.5474C94.5881 31.5474 96.8285 34.2266 96.8285 38.3649ZM94.0031 38.3649C94.0031 35.6613 92.602 33.8838 90.4641 33.8838C88.3639 33.8838 86.9512 35.6987 86.9512 38.3649C86.9512 41.0557 88.3639 42.8576 90.4641 42.8576C92.602 42.8576 94.0031 41.0931 94.0031 38.3649H94.0031Z" fill="white"/>
<path d="M106.57 39.9379C106.773 41.7543 108.543 42.9469 110.961 42.9469C113.278 42.9469 114.945 41.7543 114.945 40.1165C114.945 38.6948 113.939 37.8435 111.559 37.2601L109.178 36.6883C105.806 35.8759 104.24 34.3029 104.24 31.7505C104.24 28.5902 107.002 26.4194 110.923 26.4194C114.805 26.4194 117.465 28.5902 117.555 31.7505H114.78C114.614 29.9226 113.099 28.8192 110.884 28.8192C108.67 28.8192 107.155 29.9355 107.155 31.5603C107.155 32.8553 108.123 33.6173 110.49 34.2006L112.514 34.6961C116.282 35.5848 117.848 37.0945 117.848 39.7736C117.848 43.2004 115.111 45.3466 110.757 45.3466C106.684 45.3466 103.934 43.2508 103.756 39.9378L106.57 39.9379Z" fill="white"/>
<path d="M123.781 28.5269V31.6872H126.328V33.8579H123.781V41.2199C123.781 42.3636 124.291 42.8966 125.411 42.8966C125.713 42.8913 126.015 42.8702 126.315 42.8332V44.9909C125.812 45.0847 125.3 45.1272 124.788 45.1177C122.077 45.1177 121.019 44.1022 121.019 41.5123V33.8579H119.072V31.6872H121.019V28.5269H123.781Z" fill="white"/>
<path d="M127.803 38.365C127.803 34.1633 130.284 31.5229 134.154 31.5229C138.037 31.5229 140.507 34.1632 140.507 38.365C140.507 42.5782 138.05 45.207 134.154 45.207C130.26 45.207 127.803 42.5782 127.803 38.365ZM137.706 38.365C137.706 35.4827 136.381 33.7815 134.154 33.7815C131.927 33.7815 130.604 35.4957 130.604 38.365C130.604 41.2588 131.927 42.947 134.154 42.947C136.381 42.947 137.706 41.2588 137.706 38.365H137.706Z" fill="white"/>
<path d="M142.772 31.687H145.394V33.96H145.458C145.635 33.2501 146.052 32.6227 146.639 32.1833C147.225 31.7439 147.946 31.5193 148.679 31.5472C148.996 31.5461 149.312 31.5804 149.621 31.6495V34.2135C149.221 34.0916 148.804 34.0357 148.386 34.0478C147.986 34.0317 147.588 34.1019 147.219 34.2537C146.849 34.4054 146.517 34.6351 146.245 34.927C145.973 35.2189 145.767 35.5661 145.642 35.9446C145.517 36.3232 145.476 36.7243 145.521 37.1203V45.0412H142.772L142.772 31.687Z" fill="white"/>
<path d="M162.295 41.1191C161.925 43.5433 159.558 45.207 156.529 45.207C152.633 45.207 150.215 42.6042 150.215 38.4284C150.215 34.2396 152.646 31.5229 156.413 31.5229C160.118 31.5229 162.448 34.061 162.448 38.11V39.0492H152.99V39.2148C152.946 39.7063 153.008 40.2014 153.171 40.6673C153.334 41.1331 153.594 41.5591 153.935 41.9169C154.276 42.2746 154.689 42.556 155.147 42.7423C155.605 42.9286 156.098 43.0156 156.592 42.9974C157.242 43.0581 157.894 42.9081 158.451 42.5696C159.008 42.2312 159.441 41.7225 159.685 41.1191L162.295 41.1191ZM153.003 37.1334H159.698C159.722 36.6915 159.655 36.2493 159.5 35.8345C159.346 35.4197 159.106 35.0413 158.798 34.7231C158.49 34.4048 158.119 34.1536 157.708 33.9851C157.298 33.8166 156.857 33.7346 156.413 33.7441C155.965 33.7414 155.522 33.8272 155.107 33.9964C154.693 34.1657 154.317 34.4151 154 34.7302C153.683 35.0453 153.431 35.4199 153.26 35.8324C153.089 36.2449 153.002 36.687 153.003 37.1334V37.1334Z" fill="white"/>
<path d="M56.4506 12.9382C57.0269 12.897 57.6052 12.9838 58.1438 13.1924C58.6824 13.401 59.1678 13.7262 59.5651 14.1446C59.9624 14.5629 60.2616 15.064 60.4411 15.6116C60.6207 16.1592 60.6762 16.7398 60.6035 17.3113C60.6035 20.1231 59.0796 21.7393 56.4506 21.7393H53.2627V12.9382H56.4506ZM54.6335 20.4946H56.2975C56.7093 20.5192 57.1214 20.4518 57.5038 20.2975C57.8863 20.1432 58.2294 19.9058 58.5082 19.6026C58.787 19.2994 58.9945 18.938 59.1156 18.5448C59.2366 18.1515 59.2683 17.7363 59.2081 17.3293C59.2639 16.9239 59.2291 16.5112 59.1061 16.1209C58.9832 15.7305 58.7752 15.3721 58.497 15.0713C58.2188 14.7705 57.8774 14.5347 57.4971 14.381C57.1169 14.2272 56.7072 14.1593 56.2975 14.1819H54.6335V20.4946Z" fill="white"/>
<path d="M62.1516 18.4154C62.1097 17.9789 62.1598 17.5385 62.2986 17.1225C62.4374 16.7064 62.6619 16.3239 62.9576 15.9994C63.2533 15.6749 63.6138 15.4157 64.0159 15.2383C64.418 15.0609 64.8529 14.9692 65.2926 14.9692C65.7323 14.9692 66.1671 15.0609 66.5692 15.2383C66.9713 15.4157 67.3318 15.6749 67.6276 15.9994C67.9233 16.3239 68.1478 16.7064 68.2866 17.1225C68.4254 17.5385 68.4755 17.9789 68.4336 18.4154C68.4763 18.8523 68.4268 19.2933 68.2883 19.71C68.1499 20.1268 67.9256 20.51 67.6298 20.8351C67.3339 21.1602 66.9732 21.42 66.5707 21.5978C66.1682 21.7756 65.7328 21.8674 65.2926 21.8674C64.8524 21.8674 64.417 21.7756 64.0145 21.5978C63.612 21.42 63.2512 21.1602 62.9554 20.8351C62.6596 20.51 62.4353 20.1268 62.2968 19.71C62.1584 19.2933 62.1089 18.8523 62.1516 18.4154ZM67.0816 18.4154C67.0816 16.9757 66.433 16.1338 65.2948 16.1338C64.1522 16.1338 63.5094 16.9757 63.5094 18.4154C63.5094 19.8666 64.1522 20.7021 65.2948 20.7021C66.433 20.7021 67.0816 19.8609 67.0816 18.4154H67.0816Z" fill="white"/>
<path d="M76.7843 21.739H75.4207L74.0441 16.8473H73.9401L72.5693 21.739H71.2187L69.3828 15.0972H70.7161L71.9092 20.1653H72.0074L73.3768 15.0972H74.6378L76.0072 20.1653H76.1112L77.2985 15.0972H78.613L76.7843 21.739Z" fill="white"/>
<path d="M80.1572 15.0971H81.4226V16.1523H81.5208C81.6874 15.7733 81.9685 15.4556 82.3248 15.2435C82.6811 15.0314 83.0948 14.9354 83.5084 14.9689C83.8325 14.9446 84.1579 14.9934 84.4605 15.1115C84.7632 15.2297 85.0352 15.4142 85.2566 15.6514C85.4781 15.8887 85.6431 16.1726 85.7395 16.482C85.836 16.7915 85.8613 17.1187 85.8138 17.4393V21.7389H84.4993V17.7684C84.4993 16.7011 84.0342 16.1703 83.0621 16.1703C82.842 16.1601 82.6224 16.1974 82.4182 16.2797C82.214 16.3621 82.03 16.4875 81.879 16.6474C81.7279 16.8072 81.6133 16.9978 81.543 17.206C81.4727 17.4141 81.4484 17.635 81.4717 17.8534V21.739H80.1572L80.1572 15.0971Z" fill="white"/>
<path d="M87.9082 12.5044H89.2227V21.739H87.9082V12.5044Z" fill="white"/>
<path d="M91.05 18.415C91.0081 17.9785 91.0582 17.5381 91.1971 17.122C91.3359 16.706 91.5604 16.3234 91.8562 15.999C92.152 15.6745 92.5125 15.4152 92.9146 15.2378C93.3167 15.0604 93.7516 14.9688 94.1914 14.9688C94.6311 14.9688 95.066 15.0604 95.4681 15.2378C95.8702 15.4152 96.2307 15.6745 96.5265 15.999C96.8223 16.3234 97.0468 16.706 97.1856 17.122C97.3244 17.5381 97.3746 17.9785 97.3327 18.415C97.3753 18.852 97.3258 19.293 97.1873 19.7097C97.0488 20.1264 96.8245 20.5096 96.5286 20.8347C96.2328 21.1599 95.872 21.4196 95.4695 21.5974C95.067 21.7752 94.6316 21.867 94.1914 21.867C93.7511 21.867 93.3157 21.7752 92.9132 21.5974C92.5107 21.4196 92.1499 21.1599 91.8541 20.8347C91.5582 20.5096 91.3338 20.1264 91.1954 19.7097C91.0569 19.293 91.0074 18.852 91.05 18.415ZM95.98 18.415C95.98 16.9753 95.3314 16.1334 94.1932 16.1334C93.0506 16.1334 92.4078 16.9753 92.4078 18.415C92.4078 19.8663 93.0506 20.7017 94.1932 20.7017C95.3314 20.7017 95.98 19.8605 95.98 18.415H95.98Z" fill="white"/>
<path d="M98.7168 19.8609C98.7168 18.6654 99.6095 17.9761 101.194 17.8782L102.998 17.7745V17.2012C102.998 16.4997 102.533 16.1036 101.635 16.1036C100.901 16.1036 100.392 16.3722 100.246 16.8418H98.9739C99.1082 15.701 100.184 14.9692 101.695 14.9692C103.365 14.9692 104.307 15.7982 104.307 17.2012V21.7393H103.042V20.8059H102.938C102.726 21.1407 102.43 21.4136 102.079 21.5968C101.727 21.78 101.333 21.867 100.937 21.8487C100.657 21.8777 100.375 21.8479 100.107 21.7614C99.84 21.6748 99.5938 21.5333 99.3846 21.346C99.1754 21.1587 99.0079 20.9298 98.8929 20.674C98.7779 20.4182 98.7179 20.1413 98.7168 19.8609ZM102.998 19.2934V18.7381L101.372 18.8418C100.454 18.903 100.038 19.2142 100.038 19.7997C100.038 20.3975 100.558 20.7453 101.274 20.7453C101.483 20.7665 101.695 20.7454 101.896 20.6833C102.097 20.6212 102.284 20.5194 102.445 20.384C102.605 20.2485 102.737 20.0821 102.833 19.8948C102.928 19.7074 102.984 19.5029 102.998 19.2934Z" fill="white"/>
<path d="M106.034 18.4152C106.034 16.3165 107.116 14.987 108.799 14.987C109.215 14.9679 109.628 15.0673 109.99 15.2736C110.352 15.48 110.647 15.7847 110.841 16.1522H110.94V12.5044H112.254V21.739H110.995V20.6896H110.891C110.681 21.0547 110.375 21.3556 110.007 21.5599C109.638 21.7641 109.22 21.8639 108.799 21.8484C107.105 21.8485 106.034 20.519 106.034 18.4152ZM107.392 18.4152C107.392 19.824 108.058 20.6717 109.172 20.6717C110.28 20.6717 110.964 19.8117 110.964 18.421C110.964 17.0367 110.272 16.1645 109.172 16.1645C108.065 16.1645 107.392 17.018 107.392 18.4152H107.392Z" fill="white"/>
<path d="M117.693 18.4154C117.651 17.9789 117.701 17.5385 117.84 17.1225C117.978 16.7064 118.203 16.3239 118.499 15.9994C118.794 15.6749 119.155 15.4157 119.557 15.2383C119.959 15.0609 120.394 14.9692 120.834 14.9692C121.273 14.9692 121.708 15.0609 122.11 15.2383C122.512 15.4157 122.873 15.6749 123.169 15.9994C123.464 16.3239 123.689 16.7064 123.828 17.1225C123.966 17.5385 124.016 17.9789 123.975 18.4154C124.017 18.8523 123.968 19.2933 123.829 19.71C123.691 20.1268 123.467 20.51 123.171 20.8351C122.875 21.1602 122.514 21.42 122.112 21.5978C121.709 21.7756 121.274 21.8674 120.834 21.8674C120.393 21.8674 119.958 21.7756 119.556 21.5978C119.153 21.42 118.792 21.1602 118.496 20.8351C118.201 20.51 117.976 20.1268 117.838 19.71C117.699 19.2933 117.65 18.8523 117.693 18.4154ZM122.623 18.4154C122.623 16.9757 121.974 16.1338 120.836 16.1338C119.693 16.1338 119.05 16.9757 119.05 18.4154C119.05 19.8666 119.693 20.7021 120.836 20.7021C121.974 20.7021 122.623 19.8609 122.623 18.4154Z" fill="white"/>
<path d="M125.738 15.0971H127.004V16.1523H127.102C127.269 15.7733 127.55 15.4556 127.906 15.2435C128.262 15.0314 128.676 14.9354 129.089 14.9689C129.414 14.9446 129.739 14.9934 130.042 15.1115C130.344 15.2297 130.616 15.4142 130.838 15.6514C131.059 15.8887 131.224 16.1726 131.321 16.482C131.417 16.7915 131.442 17.1187 131.395 17.4393V21.7389H130.08V17.7684C130.08 16.7011 129.615 16.1703 128.643 16.1703C128.423 16.1601 128.203 16.1974 127.999 16.2797C127.795 16.3621 127.611 16.4875 127.46 16.6474C127.309 16.8072 127.194 16.9978 127.124 17.206C127.054 17.4141 127.029 17.635 127.053 17.8534V21.739H125.738V15.0971Z" fill="white"/>
<path d="M138.822 13.4434V15.1272H140.266V16.2313H138.822V19.6466C138.822 20.3423 139.11 20.6469 139.764 20.6469C139.932 20.6464 140.099 20.6363 140.266 20.6167V21.7085C140.029 21.7506 139.79 21.7731 139.551 21.7755C138.089 21.7755 137.507 21.2627 137.507 19.9822V16.2313H136.449V15.1272H137.507V13.4434H138.822Z" fill="white"/>
<path d="M142.061 12.5044H143.363V16.1645H143.467C143.642 15.782 143.931 15.4626 144.294 15.2497C144.658 15.0367 145.078 14.9407 145.498 14.9747C145.821 14.9572 146.143 15.0109 146.442 15.1319C146.741 15.2529 147.01 15.4383 147.229 15.6748C147.448 15.9113 147.612 16.1931 147.71 16.5001C147.807 16.8071 147.835 17.1317 147.792 17.4508V21.739H146.476V17.7742C146.476 16.7133 145.981 16.176 145.052 16.176C144.826 16.1576 144.599 16.1885 144.386 16.2668C144.174 16.345 143.981 16.4687 143.821 16.6291C143.661 16.7895 143.539 16.9827 143.462 17.1953C143.384 17.4079 143.355 17.6347 143.375 17.8599V21.739H142.061L142.061 12.5044Z" fill="white"/>
<path d="M155.457 19.9455C155.278 20.5526 154.891 21.0776 154.364 21.4289C153.836 21.7802 153.202 21.9353 152.571 21.8671C152.132 21.8786 151.696 21.7948 151.293 21.6215C150.89 21.4481 150.53 21.1894 150.237 20.8632C149.944 20.537 149.726 20.1512 149.598 19.7326C149.47 19.3139 149.434 18.8725 149.494 18.4389C149.436 18.0039 149.472 17.5615 149.6 17.1416C149.728 16.7217 149.945 16.3341 150.236 16.0051C150.527 15.6761 150.886 15.4133 151.287 15.2345C151.689 15.0557 152.125 14.9651 152.565 14.9689C154.418 14.9689 155.536 16.2315 155.536 18.3171V18.7745H150.833V18.8479C150.813 19.0917 150.843 19.337 150.923 19.5682C151.003 19.7994 151.131 20.0114 151.298 20.1906C151.465 20.3697 151.668 20.5121 151.893 20.6085C152.119 20.705 152.362 20.7534 152.607 20.7507C152.921 20.7883 153.24 20.7319 153.522 20.5885C153.804 20.4451 154.037 20.2213 154.192 19.9455L155.457 19.9455ZM150.833 17.8051H154.197C154.214 17.5822 154.184 17.3582 154.108 17.1477C154.033 16.9372 153.914 16.7448 153.76 16.5827C153.605 16.4207 153.419 16.2927 153.212 16.2068C153.005 16.121 152.782 16.0794 152.558 16.0845C152.331 16.0816 152.105 16.1242 151.894 16.2097C151.684 16.2951 151.492 16.4218 151.332 16.5821C151.171 16.7425 151.044 16.9333 150.958 17.1433C150.873 17.3534 150.83 17.5784 150.833 17.8051H150.833Z" fill="white"/>
</g>
<defs>
<clipPath id="clip0_4102_27811">
<rect width="177" height="59" fill="white" transform="translate(0.5 0.0595703)"/>
</clipPath>
</defs>
</svg>
