<svg width="41" height="41" viewBox="0 0 41 41" fill="none" xmlns="http://www.w3.org/2000/svg">
<path d="M5.90527 20.3767C5.90612 23.9707 7.18098 27.4466 9.50072 30.1796C11.8205 32.9125 15.0329 34.7234 18.5608 35.2866V24.7385H14.7553V20.3767H18.5653V17.0564C18.4811 16.2793 18.5681 15.493 18.82 14.7535C19.0719 14.014 19.4825 13.3394 20.0227 12.7776C20.5629 12.2157 21.2195 11.7805 21.9457 11.5027C22.6719 11.2249 23.45 11.1114 24.2248 11.1703C25.3498 11.1884 26.4748 11.2895 27.5848 11.4722V15.1834H25.6888C25.3665 15.1409 25.0389 15.1719 24.7302 15.2739C24.4214 15.376 24.1394 15.5466 23.9049 15.773C23.6705 15.9995 23.4896 16.2761 23.3757 16.5823C23.2618 16.8886 23.2177 17.2167 23.2468 17.5424V20.3767H27.4033L26.7388 24.74H23.2468V35.2866C26.0782 34.8364 28.7221 33.5793 30.8655 31.6641C33.0089 29.7489 34.562 27.2558 35.3409 24.4801C36.1198 21.7044 36.0919 18.7622 35.2606 16.0019C34.4292 13.2416 32.8291 10.7789 30.6498 8.90514C28.4705 7.03143 25.8033 5.82525 22.9638 5.42943C20.1244 5.03361 17.2317 5.46471 14.6282 6.67169C12.0247 7.87868 9.8194 9.811 8.27348 12.2399C6.72756 14.6688 5.90573 17.4925 5.90527 20.3767Z" fill="#6D28D9"/>
</svg>
