<svg width="46" height="45" viewBox="0 0 46 45" fill="none" xmlns="http://www.w3.org/2000/svg">
<path d="M19.6905 4.09905C20.3501 4.50223 20.5579 5.36371 20.1547 6.02323C19.8621 6.50181 19.9354 7.11851 20.3321 7.51514L20.5147 7.6978C21.6133 8.79633 22.0183 10.4101 21.5688 11.8972C21.3452 12.6372 20.564 13.0557 19.8241 12.832C19.0842 12.6084 18.6657 11.8272 18.8893 11.0873C19.0403 10.5879 18.9042 10.046 18.5354 9.67717L18.3527 9.49451C17.0417 8.18349 16.7993 6.14507 17.7664 4.56318C18.1695 3.90366 19.031 3.69587 19.6905 4.09905Z" fill="white"/>
<path d="M33.6924 8.91836C34.4503 9.06995 34.9419 9.80731 34.7903 10.5653L34.5216 11.9088C34.1518 13.7578 32.8196 15.2669 31.0307 15.8632C30.1948 16.1419 29.5723 16.847 29.3995 17.711L29.1308 19.0546C28.9792 19.8125 28.2418 20.3041 27.4839 20.1525C26.7259 20.0009 26.2343 19.2636 26.3859 18.5056L26.6546 17.1621C27.0244 15.313 28.3566 13.8039 30.1455 13.2076C30.9814 12.929 31.6039 12.2238 31.7767 11.3598L32.0454 10.0163C32.197 9.25833 32.9344 8.76676 33.6924 8.91836Z" fill="white"/>
<path d="M40.6335 25.4113C39.9585 25.1161 39.1735 25.2401 38.6222 25.7289C37.112 27.0681 34.9143 27.2906 33.1663 26.2814L32.7691 26.0521C32.0997 25.6656 31.8703 24.8096 32.2568 24.1402C32.6433 23.4707 33.4993 23.2414 34.1687 23.6279L34.5659 23.8572C35.2705 24.264 36.1563 24.1743 36.765 23.6345C38.1326 22.4218 40.0802 22.1142 41.7549 22.8465L42.2989 23.0843C43.0071 23.394 43.3302 24.2192 43.0205 24.9274C42.7109 25.6357 41.8857 25.9588 41.1774 25.6491L40.6335 25.4113Z" fill="white"/>
<path d="M13.6097 7.46125C14.0006 7.07035 14.6344 7.07035 15.0253 7.46125C15.4162 7.85215 15.4162 8.48593 15.0253 8.87684C14.6344 9.26774 14.0006 9.26774 13.6097 8.87684C13.2188 8.48593 13.2188 7.85215 13.6097 7.46125Z" fill="white"/>
<path d="M24.7844 13.4634C24.3935 13.0725 23.7597 13.0725 23.3688 13.4634C22.9779 13.8543 22.9779 14.4881 23.3688 14.879C23.7597 15.2699 24.3935 15.2699 24.7844 14.879C25.1753 14.4881 25.1753 13.8543 24.7844 13.4634Z" fill="white"/>
<path d="M32.6996 19.0619C33.0905 18.671 33.7243 18.671 34.1152 19.0619C34.5061 19.4528 34.5061 20.0866 34.1152 20.4775C33.7243 20.8684 33.0905 20.8684 32.6996 20.4775C32.3087 20.0866 32.3087 19.4528 32.6996 19.0619Z" fill="white"/>
<path d="M37.6626 28.6843C37.2717 28.2934 36.6379 28.2934 36.247 28.6843C35.8561 29.0752 35.8561 29.709 36.247 30.0999C36.6379 30.4908 37.2717 30.4908 37.6626 30.0999C38.0535 29.709 38.0535 29.0752 37.6626 28.6843Z" fill="white"/>
<path d="M14.6247 37.8809C10.4043 39.2723 8.18062 39.8546 6.95055 38.6245C5.58847 37.2625 6.44859 34.6821 8.16883 29.5214L11.3217 20.0627C12.5011 16.5244 13.194 14.4458 14.3502 13.6026L14.3405 13.6507C14.327 13.7178 14.3076 13.8157 14.283 13.9417C14.234 14.1936 14.1648 14.5579 14.083 15.0116C13.9195 15.9186 13.7055 17.1861 13.5028 18.6303C13.1014 21.4916 12.7295 25.1474 12.9211 28.0687C13.037 29.8364 13.4048 32.0293 13.733 33.7428C13.8986 34.6075 14.0572 35.3654 14.1744 35.9075C14.2331 36.1786 14.2815 36.3963 14.3154 36.5467L14.3548 36.7205L14.6247 37.8809Z" fill="white"/>
<path d="M25.0144 34.4194L25.5123 34.2534C29.8009 32.8239 31.9451 32.1091 32.3444 30.4179C32.7436 28.7267 31.1454 27.1284 27.9489 23.9319L24.7965 20.7795L24.7877 20.8071C24.7511 20.9224 24.6981 21.0924 24.6342 21.3059C24.5062 21.7335 24.3354 22.3324 24.1649 23.0151C23.8159 24.4125 23.4992 26.0419 23.4992 27.2697C23.4992 28.4975 23.8159 30.1269 24.1649 31.5243C24.3354 32.207 24.5062 32.8059 24.6342 33.2335C24.6981 33.447 24.7511 33.6169 24.7877 33.7323C24.806 33.7899 24.8202 33.8339 24.8295 33.8627L24.8399 33.8945L24.8423 33.9016L25.0144 34.4194Z" fill="white"/>
<path d="M17.1033 14.1115L17.1978 13.6537C18.3413 14.3244 19.6956 15.6786 21.6431 17.6262L22.5815 18.5646L22.1845 19.759L22.1675 19.811C22.1562 19.8458 22.14 19.8961 22.1196 19.9603C22.0788 20.0888 22.0212 20.2735 21.9525 20.5031C21.8152 20.9617 21.6323 21.6031 21.4491 22.3368C21.0906 23.7723 20.6999 25.6801 20.6999 27.2697C20.6999 28.8593 21.0906 30.7671 21.4491 32.2025C21.6323 32.9363 21.8152 33.5777 21.9525 34.0363C22.0212 34.2659 22.0788 34.4506 22.1196 34.5791C22.14 34.6433 22.1562 34.6936 22.1675 34.7284L22.3587 35.3046L17.2922 36.9934L17.0929 36.1366L17.0834 36.0953L17.0462 35.9316C17.0139 35.7882 16.9672 35.5784 16.9104 35.3157C16.7967 34.79 16.6428 34.0544 16.4823 33.2161C16.158 31.5234 15.8183 29.4716 15.7143 27.8856C15.5425 25.2658 15.8781 21.8472 16.2749 19.0193C16.4714 17.619 16.6792 16.3882 16.8379 15.5081C16.9171 15.0684 16.9839 14.7169 17.0307 14.4764C17.0541 14.3562 17.0725 14.2638 17.0849 14.202L17.0989 14.1327L17.1024 14.116L17.1033 14.1115Z" fill="white"/>
<path d="M28.5874 4.2321C28.8705 4.19456 29.3865 4.17653 29.7966 4.58664C30.2067 4.99676 30.1887 5.51273 30.1511 5.79579C30.1156 6.06329 30.0244 6.38378 29.9376 6.68909L29.8707 6.92423L29.9914 7.11543C30.1547 7.37403 30.3302 7.65184 30.4376 7.89895C30.5587 8.17769 30.6966 8.64819 30.4368 9.14251C30.1819 9.62741 29.7257 9.78698 29.4354 9.85299C29.1712 9.91305 28.8409 9.93871 28.5267 9.96312L28.2888 9.98168L28.2689 9.98325L28.0975 10.1914C27.8929 10.4402 27.6805 10.6984 27.4803 10.8814C27.2683 11.0754 26.8699 11.3744 26.3152 11.2985C25.7416 11.2199 25.4441 10.8045 25.3002 10.5449C25.1698 10.3099 25.0557 10.0005 24.9493 9.71214L24.8742 9.50897L24.6711 9.43392C24.3827 9.32754 24.0734 9.21339 23.8383 9.08304C23.5787 8.93908 23.1633 8.64164 23.0848 8.06799C23.0088 7.51329 23.3078 7.11491 23.5018 6.90288C23.6849 6.70272 23.943 6.49033 24.1918 6.28567L24.4 6.11426L24.4015 6.09444L24.4201 5.85648C24.4445 5.54234 24.4702 5.21199 24.5302 4.94784C24.5962 4.65753 24.7558 4.20131 25.2407 3.94645C25.735 3.68664 26.2055 3.82449 26.4843 3.94563C26.7314 4.05305 27.0092 4.22852 27.2678 4.39187L27.459 4.51249L27.6941 4.44567C27.9994 4.35878 28.3199 4.26758 28.5874 4.2321Z" fill="white"/>
<path d="M41.998 19.6874C42.8697 18.8157 43.1919 17.6421 42.7145 16.6084C42.3523 15.8243 41.6193 15.3143 40.7192 15.1223C40.5272 14.2222 40.0172 13.4892 39.2331 13.1271C38.1994 12.6496 37.0258 12.9718 36.1541 13.8436C35.6486 14.3491 35.4196 15.0265 35.3123 15.6298C35.2026 16.2469 35.2005 16.8993 35.237 17.4708C35.274 18.0479 35.3528 18.5771 35.4216 18.9597C35.4561 19.152 35.4886 19.3097 35.5128 19.4209C35.5249 19.4765 35.5349 19.5207 35.5422 19.5518C35.6254 19.8879 35.9004 20.2034 36.2365 20.2866L36.2386 20.2871L36.2897 20.2993C36.3208 20.3066 36.365 20.3166 36.4206 20.3287C36.5318 20.3529 36.6895 20.3854 36.8818 20.4199C37.2644 20.4887 37.7936 20.5675 38.3707 20.6045C38.9422 20.6411 39.5946 20.6389 40.2117 20.5292C40.815 20.4219 41.4924 20.1929 41.998 19.6874Z" fill="white"/>
</svg>
