<svg width="200" height="60" viewBox="0 0 200 60" fill="none" xmlns="http://www.w3.org/2000/svg">
<g clip-path="url(#clip0_4102_27812)">
<path fill-rule="evenodd" clip-rule="evenodd" d="M192.127 59.0596H7.87308C3.80947 59.0596 0.5 55.7344 0.5 51.6846V7.43457C0.5 3.37004 3.80947 0.0595703 7.87308 0.0595703H192.127C196.187 0.0595703 199.5 3.37004 199.5 7.43457V51.6846C199.5 55.7344 196.187 59.0596 192.127 59.0596Z" fill="black" fill-opacity="0.87"/>
<path fill-rule="evenodd" clip-rule="evenodd" d="M192.127 1.24031C195.535 1.24031 198.325 4.02478 198.325 7.43457V51.6846C198.325 55.0944 195.554 57.8788 192.127 57.8788H7.87308C4.46477 57.8788 1.67515 55.0944 1.67515 51.6846V7.43457C1.67515 4.02478 4.44647 1.24031 7.87308 1.24031H192.127ZM192.127 0.0595703H7.87308C3.80947 0.0595703 0.5 3.38476 0.5 7.43457V51.6846C0.5 55.7491 3.80947 59.0596 7.87308 59.0596H192.127C196.187 59.0596 199.5 55.7491 199.5 51.6846V7.43457C199.5 3.38476 196.187 0.0595703 192.127 0.0595703Z" fill="#A6A6A6"/>
<path d="M105.334 19.5764C104.005 19.5764 102.885 19.1093 101.999 18.1897C101.12 17.2959 100.629 16.0636 100.651 14.8057C100.651 13.4631 101.105 12.3265 101.999 11.4253C102.881 10.5057 104.001 10.0386 105.33 10.0386C106.644 10.0386 107.765 10.5057 108.665 11.4253C109.558 12.3559 110.012 13.4925 110.012 14.8057C109.998 16.1519 109.544 17.2885 108.665 18.186C107.783 19.113 106.663 19.5764 105.334 19.5764ZM65.7924 19.5764C64.4928 19.5764 63.3652 19.1166 62.4427 18.2081C61.5274 17.3032 61.0625 16.1593 61.0625 14.8093C61.0625 13.4594 61.5274 12.3154 62.4427 11.4106C63.3469 10.502 64.4744 10.0423 65.7924 10.0423C66.4367 10.0423 67.0627 10.171 67.6631 10.4322C68.2525 10.686 68.7321 11.0317 69.0872 11.4547L69.175 11.5614L68.1829 12.5398L68.0804 12.4184C67.5203 11.749 66.7698 11.4216 65.7777 11.4216C64.8918 11.4216 64.1193 11.738 63.4823 12.3633C62.8417 12.9923 62.5159 13.8162 62.5159 14.813C62.5159 15.8098 62.8417 16.6338 63.4823 17.2628C64.1193 17.8881 64.8918 18.2044 65.7777 18.2044C66.7222 18.2044 67.5167 17.8881 68.1353 17.2628C68.5014 16.8949 68.7284 16.38 68.8089 15.7289H65.6276V14.3532H70.1745L70.1928 14.4783C70.2257 14.71 70.2587 14.9491 70.2587 15.1698C70.2587 16.4388 69.8779 17.4651 69.1238 18.2228C68.2671 19.1203 67.1469 19.5764 65.7924 19.5764ZM118.366 19.3815H116.964L112.67 12.4773L112.707 13.7206V19.3778H111.305V10.2372H112.904L112.948 10.3071L116.986 16.8103L116.95 15.5707V10.2372H118.366V19.3815ZM94.7976 19.3815H93.3772V11.6129H90.9134V10.2372H97.2577V11.6129H94.794V19.3815H94.7976ZM89.7566 19.3815H88.3398V10.2372H89.7566V19.3815ZM81.7941 19.3815H80.3774V11.6129H77.9136V10.2372H84.2579V11.6129H81.7941V19.3815ZM77.0167 19.3668H71.5839V10.2372H77.0167V11.6129H73.0043V14.1215H76.6249V15.4825H73.0043V17.9911H77.0167V19.3668ZM103.038 17.2444C103.672 17.8807 104.44 18.2007 105.334 18.2007C106.253 18.2007 107.003 17.8881 107.629 17.2444C108.251 16.6191 108.566 15.7988 108.566 14.8093C108.566 13.8199 108.251 12.9959 107.633 12.3743C106.999 11.738 106.227 11.4179 105.337 11.4179C104.418 11.4179 103.668 11.7306 103.046 12.3743C102.423 12.9996 102.108 13.8199 102.108 14.8093C102.108 15.7988 102.42 16.6227 103.038 17.2444Z" fill="white"/>
<path fill-rule="evenodd" clip-rule="evenodd" d="M100.52 32.1493C97.0602 32.1493 94.256 34.7867 94.256 38.4245C94.256 42.0292 97.0785 44.6997 100.52 44.6997C103.979 44.6997 106.784 42.044 106.784 38.4245C106.784 34.7867 103.979 32.1493 100.52 32.1493ZM100.52 42.2132C98.6271 42.2132 96.998 40.6388 96.998 38.4098C96.998 36.1476 98.6308 34.6064 100.52 34.6064C102.413 34.6064 104.042 36.1476 104.042 38.4098C104.045 40.6536 102.413 42.2132 100.52 42.2132ZM86.8536 32.1493C83.394 32.1493 80.5898 34.7867 80.5898 38.4245C80.5898 42.0292 83.4123 44.6997 86.8536 44.6997C90.3132 44.6997 93.1174 42.044 93.1174 38.4245C93.1174 34.7867 90.3095 32.1493 86.8536 32.1493ZM86.8536 42.2132C84.9609 42.2132 83.3318 40.6388 83.3318 38.4098C83.3318 36.1476 84.9646 34.6064 86.8536 34.6064C88.7463 34.6064 90.3754 36.1476 90.3754 38.4098C90.3754 40.6536 88.7463 42.2132 86.8536 42.2132ZM70.5918 34.0657V36.7215H76.9362C76.7421 38.2112 76.2516 39.311 75.5011 40.065C74.5712 40.9993 73.1361 42.0145 70.6064 42.0145C66.7075 42.0145 63.658 38.8512 63.658 34.9338C63.658 31.0164 66.7075 27.8531 70.6064 27.8531C72.7115 27.8531 74.2454 28.688 75.3839 29.7547L77.2583 27.8715C75.6768 26.3486 73.5718 25.1826 70.6211 25.1826C65.2725 25.1826 60.7842 29.5598 60.7842 34.9191C60.7842 40.2931 65.2688 44.6556 70.6211 44.6556C73.5095 44.6556 75.6768 43.7066 77.3901 41.9189C79.1364 40.1643 79.6892 37.6888 79.6892 35.6915C79.6892 35.0699 79.6416 34.5108 79.5427 34.0363H70.5881C70.5918 34.0326 70.5918 34.0657 70.5918 34.0657ZM137.107 36.1329C136.584 34.7241 135.002 32.1346 131.758 32.1346C128.544 32.1346 125.872 34.6763 125.872 38.4098C125.872 41.9336 128.515 44.685 132.07 44.685C134.925 44.685 136.587 42.9304 137.272 41.9005L135.152 40.4733C134.449 41.5216 133.472 42.2095 132.084 42.2095C130.682 42.2095 129.701 41.5695 129.049 40.3078L137.4 36.8318C137.4 36.8355 137.107 36.1329 137.107 36.1329ZM128.592 38.2296C128.526 35.8056 130.466 34.5733 131.854 34.5733C132.948 34.5733 133.86 35.114 134.171 35.9012L128.592 38.2296ZM121.808 44.3098H124.55V25.8741H121.808V44.3098ZM117.305 33.5434H117.206C116.588 32.8041 115.412 32.1346 113.911 32.1346C110.796 32.1346 107.926 34.8897 107.926 38.4282C107.926 41.952 110.781 44.6739 113.911 44.6739C115.394 44.6739 116.588 44.0008 117.206 43.2468H117.305V44.1479C117.305 46.5425 116.031 47.8336 113.977 47.8336C112.297 47.8336 111.254 46.6198 110.829 45.6046L108.446 46.6051C109.13 48.2603 110.957 50.3091 113.974 50.3091C117.188 50.3091 119.912 48.4074 119.912 43.7691V32.5098H117.32V33.5434C117.323 33.5434 117.305 33.5434 117.305 33.5434ZM114.157 42.2132C112.264 42.2132 110.683 40.6241 110.683 38.4282C110.683 36.2138 112.264 34.6101 114.157 34.6101C116.031 34.6101 117.485 36.2322 117.485 38.4282C117.503 40.6241 116.035 42.2132 114.157 42.2132ZM149.946 25.8741H143.389V44.3098H146.131V37.3284H149.95C152.984 37.3284 155.968 35.1177 155.968 31.6086C155.968 28.0995 152.995 25.8741 149.946 25.8741ZM150.026 34.7536H146.128V28.4269H150.026C152.08 28.4269 153.241 30.1299 153.241 31.5902C153.241 33.0358 152.066 34.7536 150.026 34.7536ZM166.958 32.1162C164.967 32.1162 162.913 33.0027 162.064 34.9338L164.494 35.949C165.018 34.9338 165.977 34.588 166.991 34.588C168.412 34.588 169.847 35.4414 169.88 36.9642V37.1592C169.389 36.8796 168.313 36.4529 167.024 36.4529C164.399 36.4529 161.738 37.8948 161.738 40.5984C161.738 43.0739 163.89 44.6629 166.288 44.6629C168.13 44.6629 169.144 43.8279 169.777 42.8605H169.876V44.2877H172.519V37.2254C172.519 33.937 170.088 32.1162 166.958 32.1162ZM166.614 42.2132C165.717 42.2132 164.461 41.7718 164.461 40.6388C164.461 39.2117 166.028 38.671 167.365 38.671C168.573 38.671 169.144 38.9321 169.861 39.2926C169.664 40.9478 168.272 42.1985 166.614 42.2132ZM182.162 32.5098L179.014 40.5064H178.915L175.653 32.5098H172.702L177.597 43.6882L174.807 49.9008H177.663L185.193 32.5098H182.162ZM157.48 44.3098H160.222V25.8741H157.48V44.3098Z" fill="white"/>
<path fill-rule="evenodd" clip-rule="evenodd" d="M15.8174 11.1716C15.3927 11.6314 15.1475 12.3339 15.1475 13.2535V45.869C15.1475 46.7886 15.3927 47.4912 15.8321 47.9326L15.9455 48.0319L34.133 29.7581V29.3498L15.9309 11.0723L15.8174 11.1716Z" fill="url(#paint0_linear_4102_27812)"/>
<path fill-rule="evenodd" clip-rule="evenodd" d="M40.1843 35.868L34.1182 29.7731V29.3464L40.1843 23.2515L40.3161 23.3324L47.4916 27.43C49.5453 28.5924 49.5453 30.5124 47.4916 31.6895L40.3161 35.7871L40.1843 35.868Z" fill="url(#paint1_linear_4102_27812)"/>
<path fill-rule="evenodd" clip-rule="evenodd" d="M40.3162 35.7869L34.1183 29.5596L15.8174 47.9474C16.4873 48.6684 17.6112 48.7493 18.8669 48.0467L40.3162 35.7869Z" fill="url(#paint2_linear_4102_27812)"/>
<path fill-rule="evenodd" clip-rule="evenodd" d="M40.3162 23.3322L18.8669 11.0908C17.6112 10.3698 16.4837 10.4691 15.8174 11.1901L34.1183 29.5595L40.3162 23.3322Z" fill="url(#paint3_linear_4102_27812)"/>
<path opacity="0.2" fill-rule="evenodd" clip-rule="evenodd" d="M40.1846 35.6548L18.8816 47.8152C17.6918 48.5031 16.6301 48.4552 15.9455 47.8299L15.832 47.944L15.9455 48.0433C16.6301 48.6649 17.6918 48.7164 18.8816 48.0286L40.331 35.7872L40.1846 35.6548Z" fill="black" fill-opacity="0.87"/>
<path opacity="0.12" fill-rule="evenodd" clip-rule="evenodd" d="M47.4915 31.476L40.166 35.6545L40.2978 35.7869L47.4732 31.6893C48.5019 31.1008 49.0071 30.3283 49.0071 29.5596C48.9449 30.2658 48.4214 30.9353 47.4915 31.476Z" fill="black" fill-opacity="0.87"/>
<path opacity="0.25" fill-rule="evenodd" clip-rule="evenodd" d="M18.867 11.3042L47.4916 27.6432C48.4215 28.1692 48.945 28.8571 49.0256 29.5596C49.0256 28.7909 48.5204 28.0184 47.4916 27.4299L18.867 11.0909C16.8132 9.91012 15.1475 10.8959 15.1475 13.2537V13.467C15.1475 11.1056 16.8132 10.1382 18.867 11.3042Z" fill="white"/>
</g>
<defs>
<linearGradient id="paint0_linear_4102_27812" x1="32.5016" y1="12.9016" x2="3.35024" y2="20.6323" gradientUnits="userSpaceOnUse">
<stop stop-color="#00A0FF"/>
<stop offset="0.00657" stop-color="#00A1FF"/>
<stop offset="0.2601" stop-color="#00BEFF"/>
<stop offset="0.5122" stop-color="#00D2FF"/>
<stop offset="0.7604" stop-color="#00DFFF"/>
<stop offset="1" stop-color="#00E3FF"/>
</linearGradient>
<linearGradient id="paint1_linear_4102_27812" x1="50.1699" y1="29.5598" x2="14.648" y2="29.5598" gradientUnits="userSpaceOnUse">
<stop stop-color="#FFE000"/>
<stop offset="0.4087" stop-color="#FFBD00"/>
<stop offset="0.7754" stop-color="#FFA500"/>
<stop offset="1" stop-color="#FF9C00"/>
</linearGradient>
<linearGradient id="paint2_linear_4102_27812" x1="36.946" y1="32.9482" x2="13.3939" y2="72.4009" gradientUnits="userSpaceOnUse">
<stop stop-color="#FF3A44"/>
<stop offset="1" stop-color="#C31162"/>
</linearGradient>
<linearGradient id="paint3_linear_4102_27812" x1="11.209" y1="0.323263" x2="21.7166" y2="17.9435" gradientUnits="userSpaceOnUse">
<stop stop-color="#32A071"/>
<stop offset="0.0685" stop-color="#2DA771"/>
<stop offset="0.4762" stop-color="#15CF74"/>
<stop offset="0.8009" stop-color="#06E775"/>
<stop offset="1" stop-color="#00F076"/>
</linearGradient>
<clipPath id="clip0_4102_27812">
<rect width="199" height="59" fill="white" transform="translate(0.5 0.0595703)"/>
</clipPath>
</defs>
</svg>
