<svg width="41" height="41" viewBox="0 0 41 41" fill="none" xmlns="http://www.w3.org/2000/svg">
<path d="M20.9053 5.28662C12.5719 5.28662 5.90527 11.9533 5.90527 20.2866C5.90527 28.62 12.5719 35.2866 20.9053 35.2866C29.2386 35.2866 35.9053 28.62 35.9053 20.2866C35.9053 11.9533 29.2386 5.28662 20.9053 5.28662ZM20.9053 16.9533C22.7386 16.9533 24.2386 18.4533 24.2386 20.2866C24.2386 22.12 22.7386 23.62 20.9053 23.62C19.0719 23.62 17.5719 22.12 17.5719 20.2866C17.5719 18.4533 19.0719 16.9533 20.9053 16.9533ZM25.5719 13.62C25.5719 12.4533 26.5719 11.62 27.5719 11.62C28.5719 11.62 29.5719 12.62 29.5719 13.62C29.5719 14.62 28.7386 15.62 27.5719 15.62C26.4053 15.62 25.5719 14.7866 25.5719 13.62ZM20.9053 31.9533C14.4053 31.9533 9.23861 26.7866 9.23861 20.2866H14.2386C14.2386 23.9533 17.2386 26.9533 20.9053 26.9533C24.5719 26.9533 27.5719 23.9533 27.5719 20.2866H32.5719C32.5719 26.7866 27.4053 31.9533 20.9053 31.9533Z" fill="#6D28D9"/>
</svg>
