<svg width="41" height="41" viewBox="0 0 41 41" fill="none" xmlns="http://www.w3.org/2000/svg">
<path d="M20.9054 5.40576C12.6873 5.40576 6.02539 12.0677 6.02539 20.2858C6.02539 28.5039 12.6873 35.1658 20.9054 35.1658C29.1235 35.1658 35.7854 28.5039 35.7854 20.2858C35.7854 12.0677 29.1235 5.40576 20.9054 5.40576ZM17.2629 26.4532H14.2497V16.7564H17.2629V26.4532ZM15.7377 15.566C14.786 15.566 14.1706 14.8918 14.1706 14.0579C14.1706 13.2069 14.8046 12.5528 15.7764 12.5528C16.7483 12.5528 17.3435 13.2069 17.3621 14.0579C17.3621 14.8918 16.7483 15.566 15.7377 15.566ZM28.2679 26.4532H25.2547V21.0794C25.2547 19.8285 24.8176 18.9791 23.7279 18.9791C22.8956 18.9791 22.4011 19.5542 22.1826 20.1075C22.102 20.3044 22.0818 20.5834 22.0818 20.8608V26.4517H19.0671V19.8487C19.0671 18.6381 19.0283 17.626 18.988 16.7549H21.606L21.7439 18.1018H21.8044C22.2012 17.4694 23.173 16.5363 24.799 16.5363C26.7814 16.5363 28.2679 17.8647 28.2679 20.7198V26.4532Z" fill="#6D28D9"/>
</svg>
