<svg width="15" height="15" viewBox="0 0 15 15" fill="none" xmlns="http://www.w3.org/2000/svg">
<path d="M11.6987 8.70925L11.8057 7.71486C11.8627 7.1843 11.9004 6.83396 11.8709 6.61322L11.8812 6.61328C12.3644 6.61328 12.7562 6.22153 12.7562 5.73828C12.7562 5.25503 12.3644 4.86328 11.8812 4.86328C11.3979 4.86328 11.0062 5.25503 11.0062 5.73828C11.0062 5.95683 11.0863 6.15667 11.2188 6.31002C11.0286 6.42741 10.7799 6.67511 10.4057 7.04794L10.4056 7.04795L10.4056 7.04796C10.1173 7.33518 9.97312 7.4788 9.81228 7.50104C9.72316 7.51336 9.63236 7.50069 9.55007 7.46446C9.40155 7.39906 9.30253 7.22151 9.10449 6.86642L8.06062 4.99476C7.93844 4.77571 7.83619 4.59236 7.74399 4.44483C8.1222 4.25187 8.38119 3.85866 8.38119 3.40495C8.38119 2.76062 7.85885 2.23828 7.21452 2.23828C6.57019 2.23828 6.04785 2.76062 6.04785 3.40495C6.04785 3.85866 6.30684 4.25187 6.68505 4.44483C6.59284 4.59238 6.49061 4.77569 6.36842 4.99476L5.32455 6.86642C5.12651 7.22151 5.02749 7.39906 4.87897 7.46446C4.79668 7.50069 4.70588 7.51336 4.61676 7.50104C4.45592 7.4788 4.31174 7.33518 4.02339 7.04795C3.64911 6.67512 3.40043 6.42741 3.21024 6.31002C3.34272 6.15667 3.42285 5.95683 3.42285 5.73828C3.42285 5.25503 3.0311 4.86328 2.54785 4.86328C2.0646 4.86328 1.67285 5.25503 1.67285 5.73828C1.67285 6.22153 2.0646 6.61328 2.54785 6.61328L2.55818 6.61322C2.52861 6.83396 2.56629 7.1843 2.62336 7.71486L2.73032 8.70925C2.78969 9.26121 2.83906 9.78641 2.89953 10.2591H11.5295C11.59 9.78641 11.6393 9.26122 11.6987 8.70925Z" fill="#C27803"/>
<path d="M6.57989 12.7383H7.84915C9.50344 12.7383 10.3306 12.7383 10.8825 12.2443C11.1234 12.0287 11.2759 11.64 11.386 11.1341H3.04308C3.15315 11.64 3.30568 12.0287 3.54656 12.2443C4.09845 12.7383 4.9256 12.7383 6.57989 12.7383Z" fill="#C27803"/>
</svg>
