<svg width="46" height="45" viewBox="0 0 46 45" fill="none" xmlns="http://www.w3.org/2000/svg">
<path fill-rule="evenodd" clip-rule="evenodd" d="M10.7311 18.8713V15.037C10.7311 8.08013 16.3707 2.44043 23.3277 2.44043C30.2846 2.44043 35.9243 8.08013 35.9243 15.037V18.8713C38.0046 19.0266 39.3593 19.4189 40.3496 20.4091C41.9893 22.0489 41.9893 24.6881 41.9893 29.9664C41.9893 35.2447 41.9893 37.8838 40.3496 39.5236C38.7098 41.1634 36.0706 41.1634 30.7923 41.1634H15.863C10.5847 41.1634 7.94554 41.1634 6.30578 39.5236C4.66602 37.8838 4.66602 35.2447 4.66602 29.9664C4.66602 24.6881 4.66602 22.0489 6.30578 20.4091C7.29602 19.4189 8.65074 19.0266 10.7311 18.8713ZM13.5303 15.037C13.5303 9.62611 17.9167 5.23968 23.3277 5.23968C28.7386 5.23968 33.125 9.62611 33.125 15.037V18.776C32.4103 18.7694 31.6349 18.7694 30.7923 18.7694H15.863C15.0204 18.7694 14.2451 18.7694 13.5303 18.776V15.037ZM27.06 29.9664C27.06 32.0277 25.389 33.6987 23.3277 33.6987C21.2664 33.6987 19.5953 32.0277 19.5953 29.9664C19.5953 27.9051 21.2664 26.234 23.3277 26.234C25.389 26.234 27.06 27.9051 27.06 29.9664Z" fill="white"/>
</svg>
