<svg width="21" height="20" viewBox="0 0 21 20" fill="none" xmlns="http://www.w3.org/2000/svg">
<path fill-rule="evenodd" clip-rule="evenodd" d="M3.1433 4.30932C2.16699 5.28563 2.16699 6.85698 2.16699 9.99967C2.16699 13.1424 2.16699 14.7137 3.1433 15.69C4.11961 16.6663 5.69096 16.6663 8.83366 16.6663H12.167C15.3097 16.6663 16.881 16.6663 17.8573 15.69C18.8337 14.7137 18.8337 13.1424 18.8337 9.99967C18.8337 6.85698 18.8337 5.28563 17.8573 4.30932C16.881 3.33301 15.3097 3.33301 12.167 3.33301H8.83366C5.69096 3.33301 4.11961 3.33301 3.1433 4.30932ZM15.9805 6.26623C16.2014 6.5314 16.1656 6.9255 15.9004 7.14648L14.07 8.67181C13.3314 9.28736 12.7327 9.78627 12.2043 10.1261C11.6539 10.4801 11.1179 10.7037 10.5003 10.7037C9.88276 10.7037 9.34672 10.4801 8.79631 10.1261C8.26792 9.78628 7.66925 9.28737 6.93062 8.67182L5.10021 7.14648C4.83504 6.9255 4.79921 6.5314 5.02019 6.26623C5.24116 6.00105 5.63527 5.96523 5.90044 6.1862L7.69952 7.68544C8.47699 8.33332 9.01677 8.78169 9.47248 9.07478C9.91361 9.3585 10.2128 9.45374 10.5003 9.45374C10.7879 9.45374 11.087 9.3585 11.5282 9.07478C11.9839 8.78169 12.5237 8.33332 13.3011 7.68543L15.1002 6.1862C15.3654 5.96523 15.7595 6.00105 15.9805 6.26623Z" fill="#6D28D9"/>
</svg>
