<svg width="45" height="45" viewBox="0 0 45 45" fill="none" xmlns="http://www.w3.org/2000/svg">
<path fill-rule="evenodd" clip-rule="evenodd" d="M6.31193 9.59213C5.60742 10.5959 5.60742 13.5795 5.60742 19.5467V22.4854C5.60742 33.0069 13.518 38.1129 18.4813 40.281C19.8276 40.8691 20.5008 41.1631 22.4029 41.1631C24.305 41.1631 24.9782 40.8691 26.3245 40.281C31.2878 38.1129 39.1984 33.007 39.1984 22.4854V19.5467C39.1984 13.5795 39.1984 10.5959 38.4939 9.59213C37.7894 8.58837 34.984 7.62808 29.3732 5.70749L28.3042 5.34158C25.3795 4.34042 23.9171 3.83984 22.4029 3.83984C20.8887 3.83984 19.4263 4.34042 16.5016 5.34158L15.4326 5.70749C9.82183 7.62808 7.01643 8.58837 6.31193 9.59213ZM28.1124 19.7013C28.6272 19.1247 28.5771 18.24 28.0005 17.7251C27.4239 17.2103 26.5391 17.2604 26.0243 17.837L20.4034 24.1323L18.7815 22.3158C18.2667 21.7392 17.3819 21.6891 16.8053 22.2039C16.2287 22.7188 16.1786 23.6035 16.6935 24.1801L19.3594 27.166C19.625 27.4634 20.0047 27.6334 20.4034 27.6334C20.8022 27.6334 21.1819 27.4634 21.4475 27.166L28.1124 19.7013Z" fill="white"/>
</svg>
