<svg width="21" height="20" viewBox="0 0 21 20" fill="none" xmlns="http://www.w3.org/2000/svg"><path fill-rule="evenodd" clip-rule="evenodd" d="M18.3253 13.6132C18.3624 13.6515 18.381 13.6707 18.3983 13.6897C18.6658 13.9835 18.8196 14.3632 18.8319 14.7604C18.8327 14.7861 18.8327 14.8128 18.8327 14.8661C18.8327 14.9904 18.8327 15.0526 18.8294 15.1051C18.7764 15.9428 18.1088 16.6104 17.2711 16.6633C17.2186 16.6667 17.1564 16.6667 17.0321 16.6667H3.96658C3.84225 16.6667 3.78008 16.6667 3.72759 16.6633C2.88989 16.6104 2.22226 15.9428 2.16933 15.1051C2.16602 15.0526 2.16602 14.9904 2.16602 14.8661C2.16602 14.8128 2.16602 14.7861 2.16681 14.7604C2.17909 14.3632 2.33287 13.9835 2.60041 13.6897C2.61775 13.6707 2.63629 13.6515 2.67337 13.6132L3.75194 12.5H17.2468L18.3253 13.6132ZM7.79102 15C7.79102 14.6548 8.07084 14.375 8.41602 14.375H12.5827C12.9279 14.375 13.2077 14.6548 13.2077 15C13.2077 15.3452 12.9279 15.625 12.5827 15.625H8.41602C8.07084 15.625 7.79102 15.3452 7.79102 15Z" fill="#6B7280"></path>
                                                        <path fill-rule="evenodd" clip-rule="evenodd" d="M4.1268 5.83334C4.1268 4.26199 4.1268 3.47631 4.61496 2.98816C5.10311 2.5 5.88879 2.5 7.46013 2.5H13.5386C15.1099 2.5 15.8956 2.5 16.3837 2.98816C16.8719 3.47631 16.8719 4.26198 16.8719 5.83333V11.6667H4.1268V5.83334ZM10.4993 5.41667C10.8445 5.41667 11.1243 5.13684 11.1243 4.79167C11.1243 4.44649 10.8445 4.16667 10.4993 4.16667C10.1542 4.16667 9.87435 4.44649 9.87435 4.79167C9.87435 5.13684 10.1542 5.41667 10.4993 5.41667Z" fill="#6B7280"></path></svg>