<svg class="h-4 md:h-6" viewBox="0 0 22 25" fill="none" xmlns="http://www.w3.org/2000/svg">
                                <path d="M10.25 12.5004C10.6625 12.5004 11 12.8379 11 13.2504V17.7504C11 18.1629 10.6625 18.5004 10.25 18.5004H5.75C5.3375 18.5004 5 18.1629 5 17.7504V13.2504C5 12.8379 5.3375 12.5004 5.75 12.5004H10.25ZM6.5 0.500366C7.12344 0.500366 7.625 1.00427 7.625 1.62537V3.50037H14.375V1.62537C14.375 1.00427 14.8766 0.500366 15.5 0.500366C16.1234 0.500366 16.625 1.00427 16.625 1.62537V3.50037H18.5C20.1547 3.50037 21.5 4.84334 21.5 6.50037V21.5004C21.5 23.1551 20.1547 24.5004 18.5 24.5004H3.5C1.84297 24.5004 0.5 23.1551 0.5 21.5004V6.50037C0.5 4.84334 1.84297 3.50037 3.5 3.50037H5.375V1.62537C5.375 1.00427 5.87656 0.500366 6.5 0.500366ZM19.25 9.50037H2.75V21.5004C2.75 21.9129 3.08562 22.2504 3.5 22.2504H18.5C18.9125 22.2504 19.25 21.9129 19.25 21.5004V9.50037Z" fill="#6D28D9"/>
                            </svg>