<svg class="w-5 md:w-6 h-5 md:h-6" viewBox="0 0 28 28" fill="none"
                                            xmlns="http://www.w3.org/2000/svg">
                                            <path fill-rule="evenodd" clip-rule="evenodd"
                                                d="M2.33398 14.0002V9.3335C2.33398 6.03366 2.33398 4.38375 3.35911 3.35862C4.38424 2.3335 6.03415 2.3335 9.33398 2.3335H18.6673C21.9671 2.3335 23.6171 2.3335 24.6422 3.35862C25.6673 4.38375 25.6673 6.03366 25.6673 9.3335V14.0002C25.6673 17.3 25.6673 18.9499 24.6422 19.975C24.0865 20.5308 23.3471 20.7852 22.2609 20.9017C22.1746 20.7852 22.0929 20.6934 22.0346 20.6293C21.8991 20.4803 21.7272 20.3109 21.5607 20.1466L19.8188 18.429L19.1756 17.7774C18.7529 15.3012 16.5971 13.4168 14.0007 13.4168C11.4044 13.4168 9.24859 15.3012 8.82585 17.7774L8.18262 18.429L6.44088 20.1465C6.27427 20.3108 6.10242 20.4802 5.96689 20.6293C5.90859 20.6934 5.82686 20.7852 5.74053 20.9018C4.65422 20.7852 3.91485 20.5308 3.35911 19.975C2.33398 18.9499 2.33398 17.3 2.33398 14.0002ZM10.5007 6.12516C10.0174 6.12516 9.62565 6.51691 9.62565 7.00016C9.62565 7.48341 10.0174 7.87516 10.5007 7.87516H17.5007C17.9839 7.87516 18.3757 7.48341 18.3757 7.00016C18.3757 6.51691 17.9839 6.12516 17.5007 6.12516H10.5007ZM7.29232 11.0835C7.29232 10.6002 7.68407 10.2085 8.16732 10.2085H19.834C20.3172 10.2085 20.709 10.6002 20.709 11.0835C20.709 11.5667 20.3172 11.9585 19.834 11.9585H8.16732C7.68407 11.9585 7.29232 11.5667 7.29232 11.0835Z"
                                                fill="#6B7280"></path>
                                            <path
                                                d="M17.5007 18.6668C17.5007 20.5998 15.9336 22.1668 14.0007 22.1668C12.0677 22.1668 10.5007 20.5998 10.5007 18.6668C10.5007 16.7338 12.0677 15.1668 14.0007 15.1668C15.9336 15.1668 17.5007 16.7338 17.5007 18.6668Z"
                                                fill="#6B7280"></path>
                                            <path
                                                d="M10.502 18.5705C10.5011 18.6025 10.5007 18.6346 10.5007 18.6668C10.5007 20.5998 12.0677 22.1668 14.0007 22.1668C15.9336 22.1668 17.5007 20.5998 17.5007 18.6668C17.5007 18.6346 17.5002 18.6025 17.4993 18.5705C17.4483 16.682 15.9014 15.1668 14.0007 15.1668C12.1885 15.1668 10.698 16.5441 10.5187 18.309C10.51 18.3953 10.5043 18.4825 10.502 18.5705Z"
                                                fill="#6B7280"></path>
                                            <path
                                                d="M8.95563 20.1244L7.69509 21.3674C7.31701 21.7403 7.12797 21.9267 7.06255 22.0845C6.91348 22.4443 7.04105 22.8433 7.36562 23.0326C7.50805 23.1156 7.76496 23.1415 8.27877 23.1932C8.56888 23.2225 8.71393 23.2371 8.83542 23.2814C9.10741 23.3807 9.31899 23.5893 9.41968 23.8576C9.46465 23.9774 9.47947 24.1204 9.5091 24.4065C9.56159 24.9131 9.58783 25.1665 9.67204 25.3069C9.86395 25.627 10.2686 25.7528 10.6334 25.6058C10.7935 25.5413 10.9826 25.3549 11.3606 24.982L12.6211 23.7337C10.8565 23.2544 9.46135 21.8779 8.95563 20.1244Z"
                                                fill="#6B7280"></path>
                                            <path
                                                d="M15.3802 23.7337L16.6407 24.982C17.0188 25.3549 17.2078 25.5413 17.3679 25.6058C17.7327 25.7528 18.1374 25.627 18.3293 25.3069C18.4135 25.1665 18.4397 24.9131 18.4922 24.4065C18.5218 24.1204 18.5366 23.9774 18.5816 23.8576C18.6823 23.5893 18.8939 23.3807 19.1659 23.2814C19.2874 23.2371 19.4324 23.2225 19.7225 23.1932C20.2363 23.1415 20.4932 23.1156 20.6357 23.0326C20.9602 22.8433 21.0878 22.4443 20.9388 22.0845C20.8733 21.9267 20.6843 21.7403 20.3062 21.3674L19.0457 20.1244C18.5399 21.8779 17.1448 23.2544 15.3802 23.7337Z"
                                                fill="#6B7280"></path>
                                        </svg>