<svg width="28" height="28" viewBox="0 0 28 28" fill="none"
                                                                            xmlns="http://www.w3.org/2000/svg">
                                                                            <g clip-path="url(#clip0_180496_144215)">
                                                                                <path
                                                                                    d="M20.9779 17.582L20.3424 20.3377C20.2531 20.7273 19.9104 20.9999 19.509 20.9999C12.6129 20.9999 7.00195 15.389 7.00195 8.48744C7.00195 8.08669 7.27452 7.74424 7.66422 7.6551L10.4194 7.01963C10.821 6.9265 11.2331 7.13497 11.3999 7.51521L12.6709 10.4835C12.8196 10.833 12.7191 11.2399 12.4252 11.4799L10.9537 12.6874C11.8828 14.5802 13.4223 16.1191 15.3161 17.0488L16.5203 15.5771C16.7579 15.2823 17.1684 15.1806 17.5178 15.3319L20.4841 16.6034C20.863 16.7671 21.0709 17.1828 20.9779 17.582Z"
                                                                                    fill="#4B5563" />
                                                                                <path opacity="0.4"
                                                                                    d="M14 0C6.26719 0 0 6.26719 0 14C0 21.7328 6.26719 28 14 28C21.7328 28 28 21.7328 28 14C28 6.26719 21.7328 0 14 0ZM20.9781 17.582L20.3427 20.3377C20.2534 20.7274 19.9106 21 19.5092 21C12.6131 21 7.00219 15.3891 7.00219 8.4875C7.00219 8.08675 7.27475 7.7443 7.66445 7.65516L10.4196 7.01969C10.8212 6.92655 11.2334 7.13502 11.4002 7.51527L12.6711 10.4836C12.8198 10.8331 12.7194 11.2399 12.4254 11.48L10.9539 12.6875C11.883 14.5802 13.4225 16.1191 15.3163 17.0488L16.5205 15.5772C16.7581 15.2824 17.1686 15.1807 17.518 15.332L20.4843 16.6035C20.8633 16.7672 21.0711 17.1828 20.9781 17.582Z"
                                                                                    fill="#D1D5DB" />
                                                                            </g>
                                                                            <defs>
                                                                                <clipPath id="clip0_180496_144215">
                                                                                    <rect width="28" height="28" fill="white" />
                                                                                </clipPath>
                                                                            </defs>
                                                                        </svg>