<svg width="24" height="120" viewBox="0 0 23 17" fill="none" xmlns="http://www.w3.org/2000/svg">
                                                                <path d="M2.875 2.125C2.47969 2.125 2.15625 2.44375 2.15625 2.83333V3.81172L9.90527 10.0805C10.8352 10.8331 12.1693 10.8331 13.0992 10.0805L20.8438 3.81172V2.83333C20.8438 2.44375 20.5203 2.125 20.125 2.125H2.875ZM2.15625 6.56094V14.1667C2.15625 14.5562 2.47969 14.875 2.875 14.875H20.125C20.5203 14.875 20.8438 14.5562 20.8438 14.1667V6.56094L14.4648 11.7229C12.7398 13.1174 10.2557 13.1174 8.53516 11.7229L2.15625 6.56094ZM0 2.83333C0 1.27057 1.28926 0 2.875 0H20.125C21.7107 0 23 1.27057 23 2.83333V14.1667C23 15.7294 21.7107 17 20.125 17H2.875C1.28926 17 0 15.7294 0 14.1667V2.83333Z" fill="#0EA5E9"/>
                                                                </svg>