                                <svg width="20" height="20" viewBox="0 0 20 20" fill="none" xmlns="http://www.w3.org/2000/svg">
                                    <path x-show="like==false" fill-rule="evenodd" clip-rule="evenodd" d="M10.3652 2.31567C10.2443 2.27684 10.1121 2.28625 9.99981 2.34036C9.87688 2.3996 9.79563 2.50299 9.76644 2.6155L9.37002 4.14371C9.23138 4.67815 9.02954 5.19364 8.76957 5.68032C8.36596 6.43589 7.75527 7.01699 7.18873 7.5052L5.98978 8.53836C5.80396 8.69848 5.70617 8.93851 5.72735 9.18348L6.40415 17.0107C6.43834 17.4061 6.7687 17.7087 7.16362 17.7087H11.0375C13.6511 17.7087 15.8532 15.8901 16.2755 13.4479L16.8634 10.0481C16.9444 9.58024 16.5845 9.15383 16.1123 9.15383H11.7947C10.9805 9.15383 10.362 8.42329 10.4935 7.62092L11.0457 4.25045C11.1213 3.78877 11.0997 3.31635 10.9823 2.86353C10.9226 2.63373 10.7413 2.43651 10.486 2.35448L10.3652 2.31567L10.5563 1.72062L10.3652 2.31567ZM9.45719 1.21428C9.85934 1.02049 10.3227 0.989112 10.7475 1.12557L10.8683 1.16438L10.6771 1.75943L10.8683 1.16438C11.5158 1.37239 12.021 1.88965 12.1922 2.54966C12.3534 3.17097 12.383 3.81913 12.2792 4.45256L11.727 7.82303C11.7199 7.86616 11.7532 7.90383 11.7947 7.90383H16.1123C17.3617 7.90383 18.3079 9.03075 18.0952 10.2612L17.5072 13.661C16.9757 16.7345 14.226 18.9587 11.0375 18.9587H7.16362C6.11891 18.9587 5.24877 18.1589 5.1588 17.1184L4.482 9.29117C4.42624 8.6464 4.68352 8.01392 5.17379 7.59143L6.37274 6.55827C6.91875 6.08776 7.37837 5.63172 7.66701 5.09136C7.88082 4.6911 8.04644 4.26788 8.16007 3.82984L8.55649 2.30163C8.68085 1.82221 9.01387 1.4279 9.45719 1.21428ZM2.47305 7.90441C2.80744 7.88998 3.09384 8.14153 3.12268 8.47498L3.93234 17.8388C3.98435 18.4402 3.51057 18.9587 2.90559 18.9587C2.33574 18.9587 1.875 18.4964 1.875 17.9276V8.52883C1.875 8.19413 2.13867 7.91884 2.47305 7.90441Z" fill="#1F2A37"/>
                                    <path x-show="like==true" d="M16.8916 13.5545L17.4795 10.1547C17.6264 9.3055 16.9734 8.52883 16.1126 8.52883H11.795C11.3671 8.52883 11.0412 8.14473 11.1105 7.72198L11.6627 4.35151C11.7524 3.80395 11.7268 3.24366 11.5875 2.7066C11.4721 2.26169 11.1288 1.90445 10.6774 1.75943L10.5566 1.72062C10.2837 1.63298 9.98596 1.65337 9.72874 1.77732C9.44561 1.91375 9.23848 2.1626 9.1617 2.45857L8.76528 3.98678C8.63915 4.47302 8.45542 4.94237 8.21853 5.38584C7.8724 6.0338 7.33725 6.55238 6.78097 7.03174L5.58202 8.0649C5.24397 8.3562 5.06644 8.79246 5.10491 9.23733L5.78171 17.0646C5.84379 17.7825 6.44404 18.3337 7.16386 18.3337H11.0377C13.9388 18.3337 16.4147 16.3123 16.8916 13.5545Z" fill="#1F2A37"/>
                                    <path x-show="like==true" fill-rule="evenodd" clip-rule="evenodd" d="M2.47305 7.90391C2.80744 7.88948 3.09384 8.14103 3.12268 8.47449L3.93234 17.8383C3.98435 18.4397 3.51057 18.9582 2.90559 18.9582C2.33574 18.9582 1.875 18.4959 1.875 17.9271V8.52833C1.875 8.19363 2.13867 7.91834 2.47305 7.90391Z" fill="#1C274C"/>
                                </svg>