<svg class="h-4 md:h-6" viewBox="0 0 31 24" fill="none" xmlns="http://www.w3.org/2000/svg">
                            <path d="M10.4588 0.248291C15.6858 0.248291 19.9211 3.76901 19.9211 8.11183C19.9211 12.4546 15.6858 15.9754 10.4588 15.9754C9.60813 15.9754 8.78473 15.8726 7.99773 15.6983C6.60569 16.5473 4.59633 17.4051 2.1316 17.4051C1.67759 17.4051 1.26635 17.1415 1.08838 16.7304C0.91033 16.3194 0.996245 15.8458 1.30315 15.5241C1.32685 15.5062 2.33312 14.4295 3.07691 13.0221C1.77813 11.6772 0.996582 9.97048 0.996582 8.11183C0.996582 3.76901 5.23321 0.248291 10.4588 0.248291ZM8.48449 13.5672C9.14866 13.7548 9.81284 13.8308 10.4588 13.8308C14.4712 13.8308 17.7375 11.2662 17.7375 8.11183C17.7375 4.95748 14.4712 2.39289 10.4588 2.39289C6.44647 2.39289 3.18017 4.95748 3.18017 8.11183C3.18017 9.68453 3.98583 10.8462 4.66183 11.5477L5.73225 12.6602L5.01394 14.0139C4.85153 14.282 4.66911 14.6305 4.47896 14.9254C5.28461 14.6975 6.07798 14.3446 6.85134 13.8352L7.61105 13.4108L8.48449 13.5672ZM21.0856 5.97616C26.1079 6.16381 30.1112 9.60858 30.1112 13.8308C30.1112 15.6894 29.3287 17.3962 28.0322 18.741C28.7737 20.1484 29.7791 21.2252 29.8064 21.243C30.1112 21.5647 30.1976 22.0383 29.9792 22.4494C29.8428 22.8604 29.4288 23.124 28.9739 23.124C26.5128 23.124 24.502 22.2662 23.11 21.4173C22.323 21.5915 21.4996 21.6943 20.6489 21.6943C16.9186 21.6943 13.6933 19.8982 12.1511 17.2934C12.9381 17.1906 13.6933 17.0164 14.412 16.7751C15.6858 18.4372 18.0059 19.5497 20.6489 19.5497C21.2949 19.5497 21.9591 19.4737 22.6232 19.2861L23.4967 19.1297L24.2564 19.5542C25.0297 20.0635 25.8213 20.4165 26.6311 20.6443C26.44 20.3495 26.258 20.001 26.0943 19.7329L25.3755 18.3791L26.4445 17.2666C27.1224 16.5696 27.9276 15.4035 27.9276 13.8308C27.9276 10.8685 25.0479 8.42905 21.3358 8.13863L21.3768 8.11183C21.3768 7.37462 21.2767 6.65975 21.0856 5.97616Z" fill="#10B981"/>
                        </svg>