<svg class="w-5 md:w-6 h-5 md:h-6" viewBox="0 0 28 28" fill="none"
                                                xmlns="http://www.w3.org/2000/svg">
                                                <path fill-rule="evenodd" clip-rule="evenodd"
                                                    d="M16.6259 5.22629L16.6258 8.79356C16.6256 8.92332 16.6254 9.10831 16.6502 9.26712C16.6805 9.46126 16.7804 9.83608 17.1685 10.064C17.5423 10.2834 17.9078 10.2019 18.0816 10.1479C18.2331 10.1008 18.3992 10.0217 18.5231 9.96268L19.8342 9.33986L21.1453 9.96268C21.2692 10.0217 21.4353 10.1008 21.5868 10.1479C21.7605 10.2019 22.1261 10.2834 22.4999 10.064C22.888 9.83608 22.9878 9.46127 23.0182 9.26712C23.043 9.10833 23.0427 8.92335 23.0426 8.79359L23.0425 3.53668C23.1741 3.5305 23.3034 3.52527 23.4296 3.52087C24.68 3.47731 25.6673 4.50437 25.6673 5.75555V18.8343C25.6673 20.1305 24.6103 21.1792 23.3166 21.2601C22.1857 21.3309 20.8568 21.4692 19.834 21.7391C18.5723 22.072 17.0656 22.7927 15.8995 23.4143C15.574 23.5878 15.2292 23.7135 14.8759 23.7914V6.03634C15.2501 5.94468 15.6135 5.80015 15.9535 5.60337C16.1685 5.47894 16.3939 5.35203 16.6259 5.22629ZM23.0164 14.9546C23.1336 15.4234 22.8486 15.8985 22.3797 16.0157L17.7131 17.1824C17.2443 17.2996 16.7692 17.0145 16.652 16.5457C16.5348 16.0769 16.8198 15.6018 17.2886 15.4846L21.9553 14.318C22.4241 14.2007 22.8992 14.4858 23.0164 14.9546Z"
                                                    fill="#6B7280"></path>
                                                <path fill-rule="evenodd" clip-rule="evenodd"
                                                    d="M13.1259 6.08313C12.7359 6.00906 12.3549 5.87765 11.9966 5.6882C10.8461 5.07984 9.39139 4.39186 8.16732 4.06885C7.13305 3.79592 5.78589 3.65754 4.64679 3.58753C3.368 3.50894 2.33398 4.54973 2.33398 5.83093V18.8343C2.33398 20.1305 3.39104 21.1792 4.68465 21.2601C5.81564 21.3309 7.14449 21.4692 8.16732 21.7391C9.42901 22.072 10.9357 22.7927 12.1018 23.4143C12.4275 23.5879 12.7724 23.7136 13.1259 23.7915V6.08313ZM4.98532 10.2879C5.10252 9.81912 5.57759 9.53408 6.04641 9.65129L10.7131 10.818C11.1819 10.9352 11.4669 11.4102 11.3497 11.879C11.2325 12.3479 10.7575 12.6329 10.2886 12.5157L5.62197 11.349C5.15315 11.2318 4.86811 10.7568 4.98532 10.2879ZM6.04641 14.318C5.57759 14.2007 5.10252 14.4858 4.98532 14.9546C4.86811 15.4234 5.15315 15.8985 5.62197 16.0157L10.2886 17.1824C10.7575 17.2996 11.2325 17.0145 11.3497 16.5457C11.4669 16.0769 11.1819 15.6018 10.7131 15.4846L6.04641 14.318Z"
                                                    fill="#6B7280"></path>
                                                <path
                                                    d="M21.2925 3.67634C20.5691 3.76186 19.858 3.88702 19.2507 4.06885C18.9689 4.1532 18.6747 4.26014 18.3759 4.38263V4.60852V8.09518L19.2501 7.67993L19.2603 7.67475C19.3175 7.64552 19.5584 7.52232 19.8342 7.52232C19.8897 7.52232 19.9437 7.52731 19.9951 7.53551C20.1994 7.56808 20.3624 7.6514 20.408 7.67475L20.4183 7.67993L21.2925 8.09518V4.25459V3.67634Z"
                                                    fill="#6B7280"></path>
                                            </svg>