<svg class="w-5 md:w-6 h-5 md:h-6" viewBox="0 0 28 28" fill="none"
                                            xmlns="http://www.w3.org/2000/svg">
                                            <path fill-rule="evenodd" clip-rule="evenodd"
                                                d="M25.4785 12.9809L25.2111 15.822C24.7706 20.5034 24.5503 22.844 23.1705 24.2554C21.7908 25.6668 19.723 25.6668 15.5872 25.6668H12.4141C8.27834 25.6668 6.21048 25.6668 4.83076 24.2554C3.45104 22.844 3.23075 20.5034 2.79015 15.822L2.52276 12.9809C2.31275 10.7495 2.20775 9.63378 2.58947 9.17258C2.79596 8.9231 3.07675 8.77023 3.37697 8.74386C3.93195 8.69512 4.62891 9.48855 6.02283 11.0754C6.74371 11.8961 7.10415 12.3064 7.50625 12.3699C7.72905 12.4052 7.95606 12.369 8.16179 12.2654C8.53308 12.0786 8.78063 11.5713 9.27573 10.5568L11.8854 5.20916C12.821 3.29205 13.2888 2.3335 14.0007 2.3335C14.7125 2.3335 15.1803 3.29205 16.1159 5.20916L18.7256 10.5568C19.2207 11.5713 19.4682 12.0786 19.8395 12.2654C20.0452 12.369 20.2723 12.4052 20.495 12.3699C20.8971 12.3064 21.2576 11.8961 21.9785 11.0754C23.3724 9.48855 24.0693 8.69512 24.6243 8.74386C24.9245 8.77023 25.2053 8.9231 25.4118 9.17258C25.7936 9.63378 25.6885 10.7495 25.4785 12.9809ZM9.62565 21.0002C9.62565 20.5169 10.0174 20.1252 10.5007 20.1252H17.5007C17.9839 20.1252 18.3757 20.5169 18.3757 21.0002C18.3757 21.4834 17.9839 21.8752 17.5007 21.8752H10.5007C10.0174 21.8752 9.62565 21.4834 9.62565 21.0002Z"
                                                fill="#6B7280"></path>
                                        </svg>