<svg width="13" height="14" viewBox="0 0 13 14" fill="none"
                                                                            xmlns="http://www.w3.org/2000/svg">
                                                                            <path
                                                                                d="M6.5 0.5C2.90977 0.5 0 3.40977 0 7C0 10.5902 2.90977 13.5 6.5 13.5C10.0902 13.5 13 10.5902 13 7C13 3.40977 10.0902 0.5 6.5 0.5ZM6.5 12.2812C3.5877 12.2812 1.21875 9.91205 1.21875 7C1.21875 4.08795 3.5877 1.71875 6.5 1.71875C9.4123 1.71875 11.7812 4.08795 11.7812 7C11.7812 9.91205 9.4123 12.2812 6.5 12.2812ZM7.51562 9.03125H7.10938V6.79688C7.10938 6.46172 6.8377 6.1875 6.5 6.1875H5.6875C5.35234 6.1875 5.07812 6.46172 5.07812 6.79688C5.07812 7.13203 5.35234 7.40625 5.6875 7.40625H5.89062V9.03125H5.48438C5.14922 9.03125 4.875 9.30547 4.875 9.64062C4.875 9.97578 5.14922 10.25 5.48438 10.25H7.51562C7.85205 10.25 8.125 9.97705 8.125 9.64062C8.125 9.3042 7.85332 9.03125 7.51562 9.03125ZM6.5 5.375C6.94865 5.375 7.3125 5.01115 7.3125 4.5625C7.3125 4.11385 6.94865 3.75 6.5 3.75C6.05135 3.75 5.6875 4.11309 5.6875 4.5625C5.6875 5.01191 6.05059 5.375 6.5 5.375Z"
                                                                                fill="#52525B" />
                                                                        </svg>