<svg width="42" height="42" viewBox="0 0 42 42" fill="none" xmlns="http://www.w3.org/2000/svg">
                                                                <rect width="42" height="42" rx="4" fill="#FFEDD5" />
                                                                <path
                                                                    d="M15.589 22.2851C16.2615 21.998 17.0407 22.1867 17.5041 22.7526L18.8656 24.4175C20.752 23.3226 22.3267 21.7479 23.4216 19.8615L21.7608 18.5041C21.1949 18.0407 21.0021 17.2615 21.2933 16.589L23.2617 11.996C23.5693 11.2743 24.3443 10.8724 25.1112 11.0364L29.7041 12.0207C30.4587 12.1806 31 12.849 31 13.6241C31 23.1053 23.8153 30.9092 14.5925 31.8934C14.1906 31.9344 13.7846 31.9672 13.3786 31.9836H13.3745C13.1244 31.9918 12.8783 32 12.6241 32C11.849 32 11.1806 31.4587 11.0207 30.7041L10.0364 26.1112C9.87241 25.3443 10.2743 24.5693 10.996 24.2617L15.589 22.2933V22.2851ZM12.8947 30.0275C21.7444 29.884 28.8881 22.7362 29.0316 13.8906L24.9635 13.0172L23.2002 17.1344L24.6683 18.3401C25.4146 18.9511 25.6074 20.0132 25.1235 20.8498C23.8563 23.0355 22.0355 24.8563 19.8498 26.1235C19.0132 26.6074 17.9511 26.4146 17.3401 25.6683L16.1344 24.1961L12.0172 25.9594L12.8947 30.0275Z"
                                                                    fill="#F97316" />
                                                            </svg>