 <svg width="72" height="65" viewBox="0 0 72 65" fill="none" xmlns="http://www.w3.org/2000/svg">
                                                                    <path
                                                                        d="M4.5 11.875C4.5 8.08301 7.63906 5 11.5 5H39.5C43.3609 5 46.5 8.08301 46.5 11.875V26.334C38.4172 28.5791 32.5 35.873 32.5 44.5312C32.5 50.8799 35.6828 56.4873 40.5609 59.9248C40.2109 59.9785 39.8609 60 39.5 60H11.5C7.63906 60 4.5 56.917 4.5 53.125V11.875ZM11.5 20.4688C11.5 21.4141 12.2875 22.1875 13.25 22.1875H37.75C38.7125 22.1875 39.5 21.4141 39.5 20.4688C39.5 19.5234 38.7125 18.75 37.75 18.75H13.25C12.2875 18.75 11.5 19.5234 11.5 20.4688ZM13.25 29.0625C12.2875 29.0625 11.5 29.8359 11.5 30.7812C11.5 31.7266 12.2875 32.5 13.25 32.5H30.75C31.7125 32.5 32.5 31.7266 32.5 30.7812C32.5 29.8359 31.7125 29.0625 30.75 29.0625H13.25ZM13.25 39.375C12.2875 39.375 11.5 40.1484 11.5 41.0938C11.5 42.0391 12.2875 42.8125 13.25 42.8125H23.75C24.7125 42.8125 25.5 42.0391 25.5 41.0938C25.5 40.1484 24.7125 39.375 23.75 39.375H13.25ZM67.5 44.5312C67.5 53.0713 60.4453 60 51.75 60C43.0547 60 36 53.0713 36 44.5312C36 35.9912 43.0547 29.0625 51.75 29.0625C60.4453 29.0625 67.5 35.9912 67.5 44.5312ZM56.6391 39.8799L50 46.4004L46.8609 43.3174C46.1828 42.6514 45.0672 42.6514 44.3891 43.3174C43.7109 43.9834 43.7109 45.0791 44.3891 45.7451L48.7641 50.042C49.4422 50.708 50.5578 50.708 51.2359 50.042L59.1109 42.3076C59.7891 41.6416 59.7891 40.5459 59.1109 39.8799C58.4328 39.2139 57.3172 39.2139 56.6391 39.8799Z"
                                                                        fill="#22C55E" />
                                                                </svg>