<svg width="28" height="36" viewBox="0 0 28 36" fill="none"
                                                                        xmlns="http://www.w3.org/2000/svg">
                                                                        <path
                                                                            d="M16 0H2.6087C1.16795 0 0 1.16796 0 2.6087V33.1691C0 34.6098 1.16795 35.7778 2.60869 35.7778H25.3913C26.832 35.7778 28 34.6098 28 33.1691V11L16 0Z"
                                                                            fill="#9CA3AF" />
                                                                        <path
                                                                            d="M16.0002 8.3913V0L28.0002 11H18.6089C17.1682 11 16.0002 9.83205 16.0002 8.3913Z"
                                                                            fill="#4B5563" />
                                                                        <path d="M28 16L19 11H28V16Z" fill="#6B7280" />
                                                                        <g filter="url(#filter0_d_180496_144005)">
                                                                            <path
                                                                                d="M7.78711 21.7324V28.0312H6.61035V20.7168H7.69434L7.78711 21.7324ZM11.2295 23.3096V23.4121C11.2295 23.7962 11.1839 24.1527 11.0928 24.4814C11.0049 24.807 10.873 25.0918 10.6973 25.3359C10.5247 25.5768 10.3115 25.764 10.0576 25.8975C9.80371 26.0309 9.51074 26.0977 9.17871 26.0977C8.84993 26.0977 8.56185 26.0374 8.31445 25.917C8.07031 25.7933 7.86361 25.6191 7.69434 25.3945C7.52507 25.1699 7.38835 24.9062 7.28418 24.6035C7.18327 24.2975 7.11165 23.9622 7.06934 23.5977V23.2021C7.11165 22.8148 7.18327 22.4632 7.28418 22.1475C7.38835 21.8317 7.52507 21.5599 7.69434 21.332C7.86361 21.1042 8.07031 20.9284 8.31445 20.8047C8.55859 20.681 8.84342 20.6191 9.16895 20.6191C9.50098 20.6191 9.79557 20.6842 10.0527 20.8145C10.3099 20.9414 10.5264 21.1237 10.7021 21.3613C10.8779 21.5957 11.0098 21.8789 11.0977 22.2109C11.1855 22.5397 11.2295 22.9059 11.2295 23.3096ZM10.0527 23.4121V23.3096C10.0527 23.0654 10.0299 22.8392 9.98438 22.6309C9.9388 22.4193 9.86719 22.2337 9.76953 22.0742C9.67188 21.9147 9.54655 21.791 9.39355 21.7031C9.24382 21.612 9.06315 21.5664 8.85156 21.5664C8.64323 21.5664 8.46419 21.6022 8.31445 21.6738C8.16471 21.7422 8.03939 21.8382 7.93848 21.9619C7.83757 22.0856 7.75944 22.2305 7.7041 22.3965C7.64876 22.5592 7.6097 22.7367 7.58691 22.9287V23.876C7.62598 24.1104 7.69271 24.3252 7.78711 24.5205C7.88151 24.7158 8.01497 24.8721 8.1875 24.9893C8.36328 25.1032 8.58789 25.1602 8.86133 25.1602C9.07292 25.1602 9.25358 25.1146 9.40332 25.0234C9.55306 24.9323 9.67513 24.807 9.76953 24.6475C9.86719 24.4847 9.9388 24.2975 9.98438 24.0859C10.0299 23.8743 10.0527 23.6497 10.0527 23.4121ZM13.3975 21.8447V26H12.2207V20.7168H13.3291L13.3975 21.8447ZM13.1875 23.1631L12.8066 23.1582C12.8099 22.7839 12.862 22.4404 12.9629 22.1279C13.0671 21.8154 13.2103 21.5469 13.3926 21.3223C13.5781 21.0977 13.7995 20.9251 14.0566 20.8047C14.3138 20.681 14.6003 20.6191 14.916 20.6191C15.1699 20.6191 15.3994 20.6549 15.6045 20.7266C15.8128 20.7949 15.9902 20.9072 16.1367 21.0635C16.2865 21.2197 16.4004 21.4232 16.4785 21.6738C16.5566 21.9212 16.5957 22.2256 16.5957 22.5869V26H15.4141V22.582C15.4141 22.3281 15.3766 22.1279 15.3018 21.9814C15.2301 21.8317 15.1243 21.7259 14.9844 21.6641C14.8477 21.599 14.6768 21.5664 14.4717 21.5664C14.2699 21.5664 14.0892 21.6087 13.9297 21.6934C13.7702 21.778 13.6351 21.8936 13.5244 22.04C13.417 22.1865 13.334 22.3558 13.2754 22.5479C13.2168 22.7399 13.1875 22.945 13.1875 23.1631ZM21.1807 20.7168H22.25V25.8535C22.25 26.3288 22.1491 26.7324 21.9473 27.0645C21.7454 27.3965 21.4639 27.6488 21.1025 27.8213C20.7412 27.9971 20.3229 28.085 19.8477 28.085C19.6458 28.085 19.4212 28.0557 19.1738 27.9971C18.9297 27.9385 18.6921 27.8441 18.4609 27.7139C18.2331 27.5869 18.0426 27.4193 17.8896 27.2109L18.4414 26.5176C18.6302 26.7422 18.8385 26.9066 19.0664 27.0107C19.2943 27.1149 19.5335 27.167 19.7842 27.167C20.0544 27.167 20.2839 27.1165 20.4727 27.0156C20.6647 26.918 20.8128 26.7731 20.917 26.5811C21.0212 26.389 21.0732 26.1546 21.0732 25.8779V21.9131L21.1807 20.7168ZM17.5918 23.417V23.3145C17.5918 22.9141 17.6406 22.5495 17.7383 22.2207C17.8359 21.8887 17.9759 21.6038 18.1582 21.3662C18.3405 21.1253 18.5618 20.9414 18.8223 20.8145C19.0827 20.6842 19.3773 20.6191 19.7061 20.6191C20.0479 20.6191 20.3392 20.681 20.5801 20.8047C20.8242 20.9284 21.0277 21.1058 21.1904 21.3369C21.3532 21.5648 21.4801 21.8382 21.5713 22.1572C21.6657 22.473 21.7357 22.8245 21.7812 23.2119V23.5391C21.7389 23.9167 21.6673 24.2617 21.5664 24.5742C21.4655 24.8867 21.332 25.1569 21.166 25.3848C21 25.6126 20.7949 25.7884 20.5508 25.9121C20.3099 26.0358 20.0251 26.0977 19.6963 26.0977C19.374 26.0977 19.0827 26.0309 18.8223 25.8975C18.5651 25.764 18.3438 25.5768 18.1582 25.3359C17.9759 25.0951 17.8359 24.8118 17.7383 24.4863C17.6406 24.1576 17.5918 23.8011 17.5918 23.417ZM18.7686 23.3145V23.417C18.7686 23.6579 18.7913 23.8825 18.8369 24.0908C18.8857 24.2992 18.959 24.4831 19.0566 24.6426C19.1576 24.7988 19.2845 24.9225 19.4375 25.0137C19.5938 25.1016 19.7777 25.1455 19.9893 25.1455C20.266 25.1455 20.4922 25.0869 20.668 24.9697C20.847 24.8525 20.9837 24.6947 21.0781 24.4961C21.1758 24.2943 21.2441 24.0697 21.2832 23.8223V22.9385C21.2637 22.7464 21.223 22.5674 21.1611 22.4014C21.1025 22.2354 21.0228 22.0905 20.9219 21.9668C20.821 21.8398 20.694 21.7422 20.541 21.6738C20.388 21.6022 20.2074 21.5664 19.999 21.5664C19.7874 21.5664 19.6035 21.612 19.4473 21.7031C19.291 21.7943 19.1624 21.9196 19.0615 22.0791C18.9639 22.2386 18.8906 22.4242 18.8418 22.6357C18.793 22.8473 18.7686 23.0736 18.7686 23.3145Z"
                                                                                fill="white" />
                                                                        </g>
                                                                        <defs>
                                                                            <filter id="filter0_d_180496_144005" x="5.95818" y="20.6191" width="16.944"
                                                                                height="8.77017" filterUnits="userSpaceOnUse"
                                                                                color-interpolation-filters="sRGB">
                                                                                <feFlood flood-opacity="0" result="BackgroundImageFix" />
                                                                                <feColorMatrix in="SourceAlpha" type="matrix"
                                                                                    values="0 0 0 0 0 0 0 0 0 0 0 0 0 0 0 0 0 0 127 0" result="hardAlpha" />
                                                                                <feOffset dy="0.652174" />
                                                                                <feGaussianBlur stdDeviation="0.326087" />
                                                                                <feComposite in2="hardAlpha" operator="out" />
                                                                                <feColorMatrix type="matrix"
                                                                                    values="0 0 0 0 0 0 0 0 0 0 0 0 0 0 0 0 0 0 0.25 0" />
                                                                                <feBlend mode="normal" in2="BackgroundImageFix"
                                                                                    result="effect1_dropShadow_180496_144005" />
                                                                                <feBlend mode="normal" in="SourceGraphic" in2="effect1_dropShadow_180496_144005"
                                                                                    result="shape" />
                                                                            </filter>
                                                                        </defs>
                                                                    </svg>