<svg class="w-5 h-5 md:w-6 md:h-6" viewBox="0 0 22 22" fill="none" xmlns="http://www.w3.org/2000/svg">
                                            <path d="M20.0449 3.59661L11.7949 0.159113C11.5854 0.0718438 11.2295 0 11.0026 0C10.7743 0 10.4204 0.0718438 10.2094 0.159113L1.9598 3.59661C1.19023 3.91415 0.6875 4.66611 0.6875 5.46103C0.6875 16.5513 8.81719 21.9997 10.9957 21.9997C13.1957 21.9997 21.3125 16.4911 21.3125 5.46103C21.3125 4.66611 20.8098 3.91415 20.0449 3.59661ZM15.125 8.59345C15.125 8.83111 15.0433 9.06997 14.8766 9.26462L10.7516 14.0771C10.4629 14.4157 10.0805 14.3985 9.96875 14.3985C9.69616 14.3985 9.43293 14.2898 9.23957 14.0964L7.17707 12.0339C6.97383 11.872 6.875 11.6056 6.875 11.3048C6.875 10.7552 7.31758 10.2735 7.90625 10.2735C8.17012 10.2735 8.43391 10.3742 8.63543 10.5756L9.91117 11.8514L13.3113 7.88365C13.5158 7.64595 13.8046 7.52434 14.095 7.52434C14.8844 7.5622 15.125 8.27548 15.125 8.59345Z" fill="#0EA5E9"/>
                                        </svg>